<?xml version="1.0" encoding="UTF-8"?>
<svg version="1.1" xmlns="http://www.w3.org/2000/svg" width="1000" height="1000">
<path d="M0 0 C330 0 660 0 1000 0 C1000 330 1000 660 1000 1000 C670 1000 340 1000 0 1000 C0 670 0 340 0 0 Z " fill="#1C1D27" transform="translate(0,0)"/>
<path d="M0 0 C1.1053006 -0.00201416 2.2106012 -0.00402832 3.34939575 -0.00610352 C27.341266 0.02297573 50.74643659 2.44268049 74.375 6.5 C75.20715027 6.64286438 76.03930054 6.78572876 76.89666748 6.93292236 C106.59936805 12.11616773 136.78466231 20.22717715 164.375 32.5 C165.10227295 32.81702881 165.8295459 33.13405762 166.57885742 33.46069336 C193.33425196 45.26749402 216.71761101 61.78999302 238.20703125 81.515625 C240.29368794 83.42557383 242.41888954 85.27945347 244.5625 87.125 C251.47503722 93.1803826 257.35669341 99.72155897 263.08886719 106.90625 C264.43874697 108.57899397 265.81466483 110.22758312 267.1953125 111.875 C316.28424235 170.96157623 331.22757376 247.72434529 337.03857422 322.22949219 C337.33603148 326.03180885 337.65097078 329.83246066 337.97265625 333.6328125 C338.78974105 343.35840153 339.48005669 353.06010283 339.875 362.8125 C340.18915952 370.18468583 340.8001166 377.27292773 342.375 384.5 C342.70564453 386.28664063 342.70564453 386.28664063 343.04296875 388.109375 C347.43318211 409.93719812 361.40522857 428.63867959 375.70483398 445.17236328 C384.38726075 455.24763274 388.05096321 464.10591409 387.375 477.5 C384.82133709 475.53003147 382.43789895 473.56469606 380.1875 471.25 C370.17182928 461.45689974 359.13677194 456.05941636 346.375 450.5 C345.18729004 449.98058838 345.18729004 449.98058838 343.97558594 449.45068359 C337.03031581 446.53819659 329.89918855 444.54375012 322.625 442.625 C321.98370148 442.45458191 321.34240295 442.28416382 320.68167114 442.10858154 C303.09809552 437.45529083 285.26755617 433.7689721 267.27270508 431.1081543 C264.21619552 430.63125074 261.17358815 430.11940705 258.12768555 429.58129883 C243.33678223 426.98761202 228.57126973 425.22382806 213.625 423.8125 C210.33199076 423.49565102 207.03923639 423.17644126 203.74676514 422.85404968 C201.72599745 422.65675174 199.70489006 422.46289254 197.68341064 422.27302551 C196.78016052 422.18590805 195.8769104 422.09879059 194.94628906 422.0090332 C194.15708069 421.93449417 193.36787231 421.85995514 192.55474854 421.78315735 C190.375 421.5 190.375 421.5 188.37365723 420.99150085 C186.16628976 420.44867491 184.09367838 420.26597659 181.82519531 420.12695312 C180.93036438 420.07019409 180.03553345 420.01343506 179.11358643 419.95495605 C178.15313416 419.89763306 177.19268188 419.84031006 176.203125 419.78125 C175.20674011 419.71844849 174.21035522 419.65564697 173.18377686 419.59094238 C169.9977253 419.3904552 166.8114027 419.19482082 163.625 419 C160.45291017 418.80475739 157.28090522 418.60839296 154.10906982 418.40905762 C152.13693449 418.28523076 150.16464886 418.16376717 148.19219971 418.04504395 C144.16402743 417.79308759 140.16444952 417.50729111 136.16162109 416.98413086 C49.62708494 405.92043098 -42.68063844 410.77378861 -129.625 414.5 C-131.44937982 414.5755616 -133.27376122 414.6510853 -135.09814453 414.7265625 C-177.07565678 416.5030791 -219.2047502 420.45002614 -260.625 427.5 C-262.15229736 427.75765137 -262.15229736 427.75765137 -263.71044922 428.02050781 C-275.38906696 429.99514434 -287.02792954 432.08899464 -298.625 434.5 C-299.66269531 434.69980469 -300.70039063 434.89960937 -301.76953125 435.10546875 C-332.19487549 441.17582159 -369.77788681 450.64412777 -389.625 476.5 C-389.955 477.16 -390.285 477.82 -390.625 478.5 C-391.615 478.5 -392.605 478.5 -393.625 478.5 C-394.49647415 463.03940299 -387.65374175 452.57124168 -377.95654297 441.07910156 C-369.50549655 431.0568485 -361.90104953 421.03652596 -355.625 409.5 C-355.04878906 408.46746094 -354.47257812 407.43492187 -353.87890625 406.37109375 C-345.57774966 390.16210221 -344.82954882 371.02623634 -343.5 353.1875 C-343.33303541 351.06878118 -343.16521948 348.95012929 -342.99658203 346.83154297 C-341.96225204 333.68525032 -341.07981958 320.53177752 -340.26855469 307.37011719 C-339.21211863 290.4717941 -336.8950248 274.11245807 -333.625 257.5 C-333.46773437 256.69981445 -333.31046875 255.89962891 -333.1484375 255.07519531 C-328.95423896 233.98868444 -324.56936809 212.53513883 -316.625 192.5 C-316.02945313 190.93958984 -316.02945313 190.93958984 -315.421875 189.34765625 C-301.64149257 153.87452896 -280.97676193 121.93471105 -254.625 94.5 C-253.7690625 93.6028125 -252.913125 92.705625 -252.03125 91.78125 C-247.12605799 86.75187591 -242.00042103 82.20087389 -236.50390625 77.828125 C-234.03870429 75.83455598 -231.66296792 73.77080343 -229.29296875 71.66625977 C-198.87516018 44.9784831 -160.73650473 29.49045272 -122.625 17.5 C-121.28139404 17.07630127 -121.28139404 17.07630127 -119.91064453 16.64404297 C-112.27930199 14.26130724 -104.58676376 12.17693582 -96.8125 10.3125 C-95.84413208 10.07974365 -95.84413208 10.07974365 -94.85620117 9.84228516 C-88.82646657 8.44934735 -82.73385926 7.47604396 -76.625 6.5 C-75.60639893 6.3347583 -74.58779785 6.1695166 -73.53833008 5.99926758 C-70.33999391 5.4862393 -67.13918246 4.99168009 -63.9375 4.5 C-62.91333984 4.335 -61.88917969 4.17 -60.83398438 4 C-40.70851619 0.93508634 -20.33510847 0.02634859 0 0 Z " fill="#44BA7C" transform="translate(502.625,208.5)"/>
<path d="M0 0 C1.13985352 0.17160645 2.27970703 0.34321289 3.45410156 0.52001953 C80.62906996 12.38575045 152.2426768 43.35945108 207.875 98.625 C209.17630859 99.91241089 209.17630859 99.91241089 210.50390625 101.22583008 C216.42488225 107.17570824 221.77066283 113.43955883 227 120 C228.03617463 121.25499411 229.07486097 122.50792311 230.1171875 123.7578125 C262.9630186 163.63042147 281.99187241 213.08379805 293.3125 263 C293.55132904 264.03226715 293.55132904 264.03226715 293.79498291 265.08538818 C300.10233298 292.61278969 302.18609381 320.93131691 304.71356201 348.99639893 C308.84255645 406.69050387 308.84255645 406.69050387 335 457 C347.97176789 473.00815305 358.13430274 488.36920145 356 510 C353.11716215 524.43047648 345.37979254 535.10121697 333.3112793 543.35498047 C284.19858232 575.51169537 215.89188473 583.11549133 159 591 C157.8065799 591.16598694 157.8065799 591.16598694 156.58905029 591.33532715 C121.72578935 596.16653594 86.78517072 599.59436594 51.6875 602.1875 C49.98823364 602.3146489 49.98823364 602.3146489 48.25463867 602.44436646 C46.59235229 602.5677388 46.59235229 602.5677388 44.89648438 602.69360352 C43.45456726 602.80092552 43.45456726 602.80092552 41.98352051 602.91041565 C17.68032159 604.59222587 -6.58415248 605.16095886 -30.94140625 605.16796875 C-32.27873185 605.16940094 -33.61605728 605.17099876 -34.95338249 605.17275429 C-41.96558934 605.18192166 -48.9777776 605.18610074 -55.98999023 605.18530273 C-61.67817013 605.18477203 -67.366281 605.1917969 -73.05444336 605.20581055 C-105.09464189 605.2829523 -137.05284309 605.10683927 -169.04428482 603.11927414 C-171.90991112 602.94450681 -174.77653704 602.78965362 -177.64331055 602.63500977 C-182.78550229 602.35294759 -187.92429407 602.03438846 -193.0625 601.6875 C-193.96003998 601.62719604 -194.85757996 601.56689209 -195.78231812 601.50476074 C-410.92290009 586.8335044 -410.92290009 586.8335044 -475 532 C-484.14911113 520.50226647 -487.49223368 507.55312431 -486 493 C-483.18048222 478.55205684 -475.4851489 466.9456649 -466 456 C-437.45578526 422.23165539 -436.20806408 378.79566771 -432.72094727 336.55102539 C-430.64670395 311.54338799 -427.40522288 286.85030959 -421.6875 262.375 C-421.39464111 261.10833496 -421.10178223 259.84166992 -420.80004883 258.53662109 C-408.28372877 205.05836564 -385.95126794 154.04258625 -348.26953125 113.453125 C-346.27530546 111.29757629 -344.34716597 109.10513865 -342.4375 106.875 C-336.85012234 100.46132001 -330.78921393 94.51337537 -324.32421875 88.98828125 C-322.54027804 87.46218743 -320.77557425 85.91358292 -319.01953125 84.35546875 C-271.80986547 42.70397843 -212.26602647 17.27597371 -151 5 C-150.0728418 4.80954102 -149.14568359 4.61908203 -148.19042969 4.42285156 C-141.48901028 3.06588161 -134.76650881 1.97788743 -128 1 C-126.76797852 0.81663086 -125.53595703 0.63326172 -124.26660156 0.44433594 C-83.86913587 -5.42017837 -40.37546603 -6.35321656 0 0 Z M-125.75 30.875 C-127.42908447 31.13543091 -127.42908447 31.13543091 -129.14208984 31.40112305 C-132.43065352 31.91939619 -135.71565747 32.45568193 -139 33 C-139.93295898 33.15194824 -140.86591797 33.30389648 -141.82714844 33.46044922 C-197.43175881 42.68034156 -254.1464362 64.97517626 -296.49755859 102.69189453 C-298.72318824 104.62964618 -301.05271572 106.43001721 -303.375 108.25 C-315.2378937 117.92578203 -325.63451851 129.08892935 -334.75732422 141.3515625 C-335.96612976 142.95507035 -337.21893357 144.52511119 -338.47265625 146.09375 C-345.76092115 155.24161973 -351.9373575 165.00766484 -358 175 C-358.38430176 175.6305127 -358.76860352 176.26102539 -359.16455078 176.91064453 C-367.74489053 191.09770374 -374.70925864 205.91589579 -379.61328125 221.75390625 C-380.57703328 224.84326291 -381.72653344 227.79441656 -382.98046875 230.77734375 C-385.263211 236.38924203 -386.65417138 242.10370564 -388 248 C-388.25563721 249.0928833 -388.51127441 250.1857666 -388.7746582 251.31176758 C-389.52621181 254.53902718 -390.26574476 257.76876525 -391 261 C-391.20157715 261.88478027 -391.4031543 262.76956055 -391.61083984 263.68115234 C-392.62164463 268.13631208 -393.6077077 272.59628273 -394.57519531 277.06103516 C-394.9738025 278.88042496 -395.38867974 280.69622859 -395.8046875 282.51171875 C-400.73730445 304.40338469 -402.59077959 326.64667959 -403.9375 349 C-406.79040535 396.06333617 -409.39440411 432.15156119 -441.71484375 469.1328125 C-449.73837778 478.37495847 -456.23054056 487.70945827 -456.0625 500.3125 C-456.05347656 501.19550781 -456.04445313 502.07851563 -456.03515625 502.98828125 C-456.02355469 503.65214844 -456.01195312 504.31601562 -456 505 C-455.01 505 -454.02 505 -453 505 C-451.62262554 503.49882941 -451.62262554 503.49882941 -450.375 501.5 C-437.12654546 483.14604346 -412.16627566 474.25343364 -391.04736328 468.57226562 C-388.45468101 467.84757599 -385.9013983 467.00817694 -383.33959961 466.18212891 C-369.55966201 461.83597734 -355.19365891 459.57732286 -341 457 C-339.35233643 456.69980957 -339.35233643 456.69980957 -337.67138672 456.39355469 C-334.71963206 455.8594232 -331.76670375 455.33290428 -328.8125 454.8125 C-328.00345215 454.66997803 -327.1944043 454.52745605 -326.36083984 454.38061523 C-309.53507102 451.49082025 -292.6650872 449.27195139 -275.6875 447.5 C-274.16406982 447.33991959 -274.16406982 447.33991959 -272.60986328 447.17660522 C-244.56441746 444.24247322 -216.54868973 442.08175244 -188.375 440.875 C-187.47370361 440.83629791 -186.57240723 440.79759583 -185.64379883 440.75772095 C-178.76369629 440.46868669 -171.88244749 440.22578349 -165 440 C-163.69090668 439.95656464 -162.38181335 439.91312927 -161.03305054 439.86837769 C-137.12588056 439.08830202 -113.23293301 438.79907014 -89.31363678 438.81111908 C-86.50944454 438.81252663 -83.70525456 438.81241451 -80.90106201 438.81231689 C-24.00991681 438.82697865 33.13915507 439.76670699 89.85546875 444.5 C94.31425844 444.87186844 98.77420118 445.19811003 103.23828125 445.5 C105.08619263 445.62568359 105.08619263 445.62568359 106.97143555 445.75390625 C109.30210481 445.91089353 111.63298121 446.06485512 113.96411133 446.21484375 C120.48447299 446.65984636 126.94264073 447.32665543 133.4236145 448.16944885 C139.22251498 448.91889331 145.02981664 449.56239606 150.84375 450.18359375 C152.76953268 450.39126276 154.69531392 450.5989452 156.62109375 450.80664062 C159.56236103 451.12319286 162.50377382 451.4378969 165.44580078 451.74731445 C176.20316158 452.88178891 186.81857052 454.18072424 197.4284668 456.30175781 C200.77498619 456.95600933 204.11472624 457.49538417 207.48828125 457.98828125 C215.10750242 459.12864461 222.64453362 460.632436 230.1875 462.1875 C231.28943695 462.41418365 231.28943695 462.41418365 232.41363525 462.64544678 C242.46820525 464.7258057 252.45046043 466.98506513 262.375 469.625 C263.38199951 469.88949951 264.38899902 470.15399902 265.42651367 470.42651367 C272.55039247 472.38547573 279.24390122 475.02312635 286 478 C286.84643066 478.36770508 287.69286133 478.73541016 288.56494141 479.11425781 C300.80210796 484.50069233 310.60287395 490.33438463 320 500 C321.64864545 501.35555293 323.31003995 502.69631653 325 504 C325.8745069 491.22248256 321.46455819 482.20452499 314 472 C312.62856174 470.45713195 311.23177503 468.93648069 309.8125 467.4375 C287.97163722 443.9222951 279.03176347 416.91001737 277.125 385.5625 C276.95264836 382.80845734 276.77747629 380.05459849 276.6015625 377.30078125 C276.55489441 376.56991302 276.50822632 375.8390448 276.46014404 375.08602905 C275.90085777 366.38101628 275.30385229 357.67868224 274.69134521 348.9772644 C274.56596317 347.19018032 274.44177381 345.40301207 274.31890869 343.61575317 C273.21574762 327.59340845 271.99357522 311.53595999 269.3125 295.6875 C269.14806396 294.7087793 268.98362793 293.73005859 268.81420898 292.72167969 C266.67585992 280.51396191 263.76936198 268.47619006 260.83740234 256.43896484 C260.08607916 253.35350178 259.347647 250.26531261 258.61328125 247.17578125 C247.61822774 201.42615048 224.36845171 161.49897828 194 126 C193.33613281 125.22140625 192.67226563 124.4428125 191.98828125 123.640625 C185.76281275 116.4218795 179.16382235 110.20823871 171.7265625 104.234375 C169.40023648 102.32798749 167.19845303 100.36205382 165 98.3125 C153.17412905 87.71584144 139.83189579 78.74480433 126 71 C125.4136377 70.66307129 124.82727539 70.32614258 124.22314453 69.97900391 C113.58558932 63.87749581 102.44886289 59.34936565 91 55 C89.80761719 54.53851563 88.61523438 54.07703125 87.38671875 53.6015625 C65.72091091 45.53167429 43.75262895 39.14942056 21 35 C20.36109833 34.88312836 19.72219666 34.76625671 19.06393433 34.64584351 C14.04794404 33.73229734 9.02642034 32.85422535 4 32 C2.96149399 31.82298553 2.96149399 31.82298553 1.90200806 31.64239502 C-19.35537304 28.06366075 -40.31435643 26.52245459 -61.875 26.5625 C-62.94440826 26.56255035 -64.01381653 26.56260071 -65.1156311 26.56265259 C-85.39600627 26.60690692 -105.70278417 27.68176722 -125.75 30.875 Z " fill="#104D3A" transform="translate(565,182)"/>
<path d="M0 0 C330 0 660 0 1000 0 C1000 330 1000 660 1000 1000 C670 1000 340 1000 0 1000 C0 670 0 340 0 0 Z M25 29 C24.87472813 31.89065236 24.81389798 34.75856787 24.79467773 37.65063477 C24.78477814 38.55786285 24.77487854 39.46509094 24.76467896 40.39981079 C24.73296405 43.41364894 24.70826722 46.42750289 24.68359375 49.44140625 C24.66303284 51.52506431 24.64203661 53.60871811 24.62062073 55.69236755 C24.56531091 61.18818731 24.51594106 66.68404526 24.46777344 72.17993164 C24.4176233 77.78340064 24.36190345 83.38681388 24.30664062 88.99023438 C24.19895014 99.993442 24.09752952 110.99669795 24 122 C22.02 122.495 22.02 122.495 20 123 C20 123.99 20 124.98 20 126 C21.32 126.33 22.64 126.66 24 127 C24 240.85 24 354.7 24 472 C22.68 472.33 21.36 472.66 20 473 C20 473.99 20 474.98 20 476 C21.32 476.33 22.64 476.66 24 477 C24 554.55 24 632.1 24 712 C22.68 712.33 21.36 712.66 20 713 C20 713.66 20 714.32 20 715 C20.99 715.66 21.98 716.32 23 717 C23.495 718.485 23.495 718.485 24 720 C22.68 720 21.36 720 20 720 C20 720.99 20 721.98 20 723 C20.66 723.33 21.32 723.66 22 724 C22 726.64 22 729.28 22 732 C21.34 732.33 20.68 732.66 20 733 C20 734.32 20 735.64 20 737 C21.32 736.67 22.64 736.34 24 736 C24.33 815.53 24.66 895.06 25 977 C338.5 977 652 977 975 977 C975 663.83 975 350.66 975 28 C740.1534375 27.9690625 740.1534375 27.9690625 500.5625 27.9375 C451.02713135 27.928396 401.4917627 27.91929199 350.45532227 27.90991211 C306.26323703 27.90656881 306.26323703 27.90656881 262.07115173 27.90455627 C240.99833593 27.90355837 219.9255233 27.89923431 198.85270839 27.89332657 C177.39230788 27.88739107 155.93190939 27.88515931 134.47150808 27.88655505 C121.69226542 27.88727566 108.91303025 27.88525329 96.13378897 27.8791924 C87.71427685 27.87546808 79.29476976 27.87531178 70.87525731 27.87816466 C66.06802456 27.87968857 61.26080627 27.87956471 56.45357502 27.87511742 C52.08212349 27.87110464 47.71069778 27.87159711 43.3392467 27.87586016 C41.75790377 27.87658109 40.176559 27.87558404 38.59521842 27.87276472 C36.46651788 27.86920635 34.33791164 27.87168085 32.20921427 27.8758015 C30.43314089 27.87556753 30.43314089 27.87556753 28.62118724 27.87532884 C26.07382299 27.70193892 26.07382299 27.70193892 25 29 Z " fill="#1C1D27" transform="translate(0,0)"/>
<path d="M0 0 C317.46 0 634.92 0 962 0 C962 317.13 962 634.26 962 961 C644.54 961 327.08 961 0 961 C0 643.87 0 326.74 0 0 Z M6 7 C5.87472813 9.89065236 5.81389798 12.75856787 5.79467773 15.65063477 C5.78477814 16.55786285 5.77487854 17.46509094 5.76467896 18.39981079 C5.73296405 21.41364894 5.70826722 24.42750289 5.68359375 27.44140625 C5.66303284 29.52506431 5.64203661 31.60871811 5.62062073 33.69236755 C5.56531091 39.18818731 5.51594106 44.68404526 5.46777344 50.17993164 C5.4176233 55.78340064 5.36190345 61.38681388 5.30664062 66.99023438 C5.19895014 77.993442 5.09752952 88.99669795 5 100 C3.02 100.495 3.02 100.495 1 101 C1 101.99 1 102.98 1 104 C2.32 104.33 3.64 104.66 5 105 C5 218.85 5 332.7 5 450 C3.68 450.33 2.36 450.66 1 451 C1 451.99 1 452.98 1 454 C2.32 454.33 3.64 454.66 5 455 C5 532.55 5 610.1 5 690 C3.68 690.33 2.36 690.66 1 691 C1 691.66 1 692.32 1 693 C1.99 693.66 2.98 694.32 4 695 C4.495 696.485 4.495 696.485 5 698 C3.68 698 2.36 698 1 698 C1 698.99 1 699.98 1 701 C1.66 701.33 2.32 701.66 3 702 C3 704.64 3 707.28 3 710 C2.34 710.33 1.68 710.66 1 711 C1 712.32 1 713.64 1 715 C2.32 714.67 3.64 714.34 5 714 C5.33 793.53 5.66 873.06 6 955 C319.5 955 633 955 956 955 C956 641.83 956 328.66 956 6 C721.1534375 5.9690625 721.1534375 5.9690625 481.5625 5.9375 C432.02713135 5.928396 382.4917627 5.91929199 331.45532227 5.90991211 C287.26323703 5.90656881 287.26323703 5.90656881 243.07115173 5.90455627 C221.99833593 5.90355837 200.9255233 5.89923431 179.85270839 5.89332657 C158.39230788 5.88739107 136.93190939 5.88515931 115.47150808 5.88655505 C102.69226542 5.88727566 89.91303025 5.88525329 77.13378897 5.8791924 C68.71427685 5.87546808 60.29476976 5.87531178 51.87525731 5.87816466 C47.06802456 5.87968857 42.26080627 5.87956471 37.45357502 5.87511742 C33.08212349 5.87110464 28.71069778 5.87159711 24.3392467 5.87586016 C22.75790377 5.87658109 21.176559 5.87558404 19.59521842 5.87276472 C17.46651788 5.86920635 15.33791164 5.87168085 13.20921427 5.8758015 C11.43314089 5.87556753 11.43314089 5.87556753 9.62118724 5.87532884 C7.07382299 5.70193892 7.07382299 5.70193892 6 7 Z " fill="#61C186" transform="translate(19,22)"/>
<path d="M0 0 C36.05426218 8.81649259 72.97352792 14.8416832 109.92016602 18.40161133 C110.78287109 18.48717285 111.64557617 18.57273437 112.53442383 18.66088867 C119.32341125 19.32488914 126.11953244 19.87212161 132.92016602 20.40161133 C134.35604932 20.51605787 135.79192103 20.63064993 137.2277832 20.74536133 C188.0274361 24.77595257 238.71583813 25.75760037 289.64819074 25.71529138 C295.25281489 25.71182611 300.85731515 25.72139568 306.46191406 25.73779297 C344.39032208 25.84618299 382.0828299 25.41210393 419.92016602 22.40161133 C420.77312193 22.33454294 421.62607784 22.26747456 422.50488091 22.19837379 C431.98219703 21.45197769 441.45075795 20.64236093 450.91674805 19.76342773 C454.90381175 19.39770328 458.89390311 19.0757616 462.88500977 18.75708008 C508.83990381 15.02981308 554.0290908 6.74593798 599.06469727 -2.89916992 C599.7749556 -3.05080597 600.48521393 -3.20244202 601.21699524 -3.3586731 C604.80115186 -4.12779716 608.36881238 -4.94481154 611.93188477 -5.80541992 C616.26124025 -6.76894801 620.49368694 -6.98102877 624.92016602 -6.97338867 C626.09264893 -6.97532227 626.09264893 -6.97532227 627.28881836 -6.97729492 C633.33798575 -6.86632416 637.65748571 -5.71701404 642.92016602 -2.59838867 C642.92016602 -0.34838867 642.92016602 -0.34838867 641.92016602 2.40161133 C637.27290306 5.45811889 631.76908029 7.38292715 626.54516602 9.21411133 C625.8389209 9.46273926 625.13267578 9.71136719 624.4050293 9.9675293 C614.36806513 13.39370009 604.07337738 15.97221012 593.81616211 18.64379883 C591.42646752 19.26912441 589.04107593 19.90628292 586.65844727 20.55786133 C583.08544939 21.53267263 579.50593596 22.47490918 575.92016602 23.40161133 C575.20280273 23.58933105 574.48543945 23.77705078 573.74633789 23.97045898 C559.8613319 27.56909586 545.87293694 30.03373999 531.72094727 32.28833008 C527.77063275 32.91816892 523.85248795 33.59853111 519.93969727 34.42895508 C513.44618822 35.7631109 506.87406146 36.49911968 500.29516602 37.27661133 C499.58898132 37.36087372 498.88279663 37.44513611 498.1552124 37.5319519 C424.69956285 46.27037098 351.34753666 48.67661837 277.42016602 48.83911133 C275.45601997 48.84384712 275.45601997 48.84384712 273.45219421 48.84867859 C236.95415021 48.9278917 200.58841794 48.28065953 164.17016602 45.65161133 C163.28203217 45.58806835 162.39389832 45.52452538 161.47885132 45.45905685 C142.632616 44.10163526 123.83141268 42.3646192 105.04516602 40.34301758 C104.29891212 40.26273064 103.55265823 40.1824437 102.78379059 40.09972382 C80.42578501 37.67436394 58.23779903 34.51445957 36.23266602 29.83911133 C35.23015808 29.62634048 35.23015808 29.62634048 34.20739746 29.40927124 C25.82524195 27.61430329 17.54124866 25.55574825 9.27148438 23.31005859 C6.57890208 22.58017597 3.88420573 21.87526983 1.17797852 21.19848633 C-11.06940581 18.11162931 -23.07041081 14.34290382 -35.06469727 10.39233398 C-37.1695122 9.70072759 -39.27754578 9.0188739 -41.38793945 8.34448242 C-42.45802246 7.99853027 -43.52810547 7.65257812 -44.63061523 7.29614258 C-45.59781494 6.98652588 -46.56501465 6.67690918 -47.56152344 6.35791016 C-50.5809014 5.21133687 -52.79775474 3.68369058 -55.07983398 1.40161133 C-54.70817878 -0.95716038 -54.47042759 -2.25166997 -52.65405273 -3.86401367 C-37.57246194 -11.73266974 -15.4566181 -3.79026843 0 0 Z " fill="#1E7C56" transform="translate(206.079833984375,708.598388671875)"/>
<path d="M0 0 C4.21397538 0.00464498 8.42766295 -0.00237478 12.64160156 -0.02050781 C39.73652131 -0.13595018 66.54800336 0.66668197 93.5488739 2.96911621 C98.18837359 3.36312687 102.83153381 3.69311742 107.47712708 4.00669861 C145.94855684 6.74122807 185.17862965 13.53402448 222.69042969 22.31567383 C224.00698627 22.62041504 225.3235557 22.92510072 226.64013672 23.22973633 C243.73199496 27.2051089 260.40914475 31.66415347 276.69042969 38.31567383 C277.51236816 38.64567383 278.33430664 38.97567383 279.18115234 39.31567383 C303.02417689 48.98316824 303.02417689 48.98316824 306.69042969 56.31567383 C298.6748124 55.80808256 291.15813607 54.11801946 283.37792969 52.19067383 C265.60874322 47.89676408 247.68582145 44.51004405 229.69042969 41.31567383 C228.59005371 41.11876953 227.48967773 40.92186523 226.35595703 40.71899414 C219.53070677 39.52134529 212.68860389 38.50947261 205.81939697 37.5982666 C204.31521597 37.3986061 202.8112923 37.19700233 201.30755615 36.99401855 C161.58563144 31.64583661 121.72185872 28.98997931 81.72981071 26.67475796 C78.42414169 26.48304424 75.12178835 26.2753324 71.81871033 26.04100037 C58.62717589 25.12327523 45.43640684 25.11611178 32.21777344 25.07739258 C30.95421335 25.07259007 29.69065327 25.06778755 28.38880348 25.06283951 C19.51006314 25.0295295 10.63137072 25.01238394 1.75257301 25.00502062 C-0.37408376 25.00317208 -2.50073946 25.00079028 -4.62739563 24.99834824 C-39.13218376 24.96241888 -73.60547806 25.01672014 -108.05957031 27.12817383 C-108.74753315 27.16983547 -109.43549599 27.21149712 -110.14430618 27.25442123 C-125.44626041 28.1888417 -140.71718753 29.48981323 -155.98535156 30.85864258 C-156.67597939 30.92027903 -157.36660721 30.98191547 -158.07816315 31.04541969 C-168.08354913 31.94467344 -178.01458379 33.12373071 -187.95410156 34.56958008 C-193.93343543 35.42663651 -199.93168699 36.08534188 -205.93457031 36.75317383 C-240.55556449 40.7068689 -274.55332347 46.81158529 -308.18847656 55.96801758 C-311.87823061 56.96769812 -315.51440577 57.80316443 -319.30957031 58.31567383 C-319.30957031 57.65567383 -319.30957031 56.99567383 -319.30957031 56.31567383 C-317.23441036 54.82056606 -315.19083984 53.49344813 -312.99707031 52.19067383 C-312.3291748 51.79323975 -311.6612793 51.39580566 -310.97314453 50.98632812 C-264.79215499 24.31492616 -205.32708783 16.6814579 -153.30957031 9.31567383 C-152.13313965 9.14825684 -150.95670898 8.98083984 -149.74462891 8.80834961 C-100.05751327 1.8336853 -50.13328535 -0.05986964 0 0 Z " fill="#114E3B" transform="translate(502.3095703125,554.684326171875)"/>
<path d="M0 0 C0.78617706 -0.00524185 1.57235413 -0.0104837 2.38235474 -0.0158844 C4.05176618 -0.02231148 5.72122286 -0.0209587 7.390625 -0.01245117 C9.90190632 -0.00405144 12.41082509 -0.03250782 14.921875 -0.06445312 C28.42348607 -0.12599329 39.97939927 1.16649815 49.98046875 11.0703125 C60.83907312 23.34966884 61.99878072 37.67714411 61.0703125 53.43359375 C59.76213921 63.87680761 56.17629077 73.58668569 48.5078125 80.99609375 C47.05523292 82.52345639 47.05523292 82.52345639 46.0703125 84.43359375 C46.97530356 94.00477922 53.02309512 104.50092233 56.6809082 113.35571289 C57.57550881 115.52715473 58.45473433 117.70433283 59.33203125 119.8828125 C59.60697922 120.53714767 59.88192719 121.19148285 60.16520691 121.86564636 C61.89398293 126.19733064 62.42168588 129.78569864 62.0703125 134.43359375 C59.64575044 136.85815581 53.51131694 135.71534229 50.2578125 135.74609375 C49.24654297 135.77509766 48.23527344 135.80410156 47.19335938 135.83398438 C46.21818359 135.84236328 45.24300781 135.85074219 44.23828125 135.859375 C42.89672974 135.88124878 42.89672974 135.88124878 41.52807617 135.90356445 C38.21093327 135.26926425 37.1360816 134.07226282 35.0703125 131.43359375 C33.83764648 128.81152344 33.83764648 128.81152344 32.81640625 125.85546875 C32.43677734 124.77652344 32.05714844 123.69757813 31.66601562 122.5859375 C31.28380859 121.46316406 30.90160156 120.34039062 30.5078125 119.18359375 C29.73599738 116.96994038 28.96386877 114.75639629 28.19140625 112.54296875 C27.82813232 111.49044922 27.4648584 110.43792969 27.09057617 109.35351562 C26.22358257 106.87224176 25.32783491 104.40760619 24.3984375 101.94921875 C23.33136657 99.12461924 22.3239066 96.30169004 21.3828125 93.43359375 C21.13144531 92.67046875 20.88007812 91.90734375 20.62109375 91.12109375 C20.43933594 90.56421875 20.25757813 90.00734375 20.0703125 89.43359375 C18.0903125 89.92859375 18.0903125 89.92859375 16.0703125 90.43359375 C16.04525635 91.70066162 16.0202002 92.96772949 15.99438477 94.27319336 C15.90049254 98.95657154 15.80022815 103.63979505 15.69799805 108.32299805 C15.65458009 110.35323479 15.61291024 112.38350967 15.57299805 114.41381836 C15.51546104 117.32547526 15.45171972 120.23693889 15.38671875 123.1484375 C15.36165001 124.51874367 15.36165001 124.51874367 15.33607483 125.91673279 C15.18418421 132.31972204 15.18418421 132.31972204 14.0703125 133.43359375 C10.26513983 133.71316783 6.44703904 133.66537655 2.6328125 133.68359375 C1.01922852 133.71453125 1.01922852 133.71453125 -0.62695312 133.74609375 C-2.16706055 133.75382812 -2.16706055 133.75382812 -3.73828125 133.76171875 C-4.68501709 133.77106445 -5.63175293 133.78041016 -6.60717773 133.79003906 C-7.37360596 133.67241211 -8.14003418 133.55478516 -8.9296875 133.43359375 C-11.13609968 130.12397548 -11.18188647 129.12065568 -11.19038391 125.27160645 C-11.19746872 124.20322037 -11.20455353 123.13483429 -11.21185303 122.03407288 C-11.20937561 120.86202805 -11.20689819 119.68998322 -11.2043457 118.48242188 C-11.20945663 117.24809921 -11.21456757 116.01377655 -11.21983337 114.74205017 C-11.23136398 111.35569012 -11.23380111 107.96957457 -11.23127007 104.5832119 C-11.23020119 101.75751676 -11.23508152 98.93184426 -11.2398755 96.10615396 C-11.25097362 89.44135758 -11.25140614 82.77661756 -11.24536133 76.11181641 C-11.23931778 69.23223486 -11.25164137 62.35285763 -11.2729314 55.47331095 C-11.29053205 49.56920519 -11.29655127 43.66516457 -11.29329365 37.76103354 C-11.29147846 34.23362263 -11.29414041 30.70635753 -11.30800819 27.17897034 C-11.32288627 23.24748674 -11.31362986 19.31626465 -11.30200195 15.38476562 C-11.30964569 14.21272079 -11.31728943 13.04067596 -11.32516479 11.83311462 C-11.31815048 10.76472855 -11.31113617 9.69634247 -11.3039093 8.59558105 C-11.30407704 7.66570122 -11.30424479 6.73582138 -11.30441761 5.77776337 C-10.9296875 3.43359375 -10.9296875 3.43359375 -9.62697124 1.63622284 C-6.74394815 -0.40657492 -3.40755376 -0.01328352 0 0 Z " fill="#FDFEFD" transform="translate(517.9296875,366.56640625)"/>
<path d="M0 0 C2.35764214 -0.10149127 4.71411199 -0.16624278 7.07324219 -0.22265625 C8.20814087 -0.26773315 8.20814087 -0.26773315 9.3659668 -0.3137207 C15.94954729 -0.37894725 20.98835221 1.48904451 25.99902344 5.80078125 C35.76002744 18.06682168 36.11285003 32.31106616 34.69824219 47.4296875 C33.03466001 58.97078883 28.38502789 70.71555805 20.01074219 79.08984375 C20.34478393 84.24698634 21.81913827 88.74056845 23.73339844 93.4921875 C24.27733838 94.89115161 24.8209481 96.29024414 25.36425781 97.68945312 C26.21744564 99.8613155 27.07483635 102.03134378 27.9387207 104.19897461 C28.77791467 106.31313013 29.60019829 108.43329699 30.42089844 110.5546875 C30.68024673 111.19139877 30.93959503 111.82811005 31.20680237 112.4841156 C33.04521828 117.27338608 33.40699959 121.04236753 33.01074219 126.08984375 C28.21930413 130.8812818 18.58332042 130.32239257 12.10449219 130.6484375 C10.01074219 130.08984375 10.01074219 130.08984375 8.54858398 128.03222656 C6.75973049 124.60957816 5.5059029 121.11250662 4.31152344 117.453125 C4.07161179 116.7324736 3.83170013 116.0118222 3.58451843 115.26933289 C3.08173265 113.75496203 2.58184635 112.23962574 2.0847168 110.72338867 C1.32156046 108.3972177 0.54873589 106.07442836 -0.22558594 103.75195312 C-0.7137848 102.27753192 -1.20143449 100.80292873 -1.68847656 99.328125 C-1.91967697 98.63229813 -2.15087738 97.93647125 -2.38908386 97.21955872 C-3.98925781 92.32206126 -3.98925781 92.32206126 -3.98925781 90.08984375 C-6.46425781 90.58484375 -6.46425781 90.58484375 -8.98925781 91.08984375 C-8.99860352 92.28061523 -9.00794922 93.47138672 -9.01757812 94.69824219 C-9.05747169 99.11919467 -9.12322855 103.53945078 -9.19677734 107.95996094 C-9.22499068 109.87263031 -9.24620343 111.78541635 -9.26025391 113.69824219 C-9.28167862 116.44917548 -9.32832521 119.1987055 -9.37988281 121.94921875 C-9.38172577 123.2306778 -9.38172577 123.2306778 -9.38360596 124.5380249 C-9.52996235 130.47973574 -9.52996235 130.47973574 -11.88598633 133.609375 C-17.77002504 137.75108257 -26.06827076 137.41941456 -32.98925781 137.08984375 C-34.84950163 135.22959993 -34.11703911 132.13006697 -34.11865234 129.64697266 C-34.12040466 128.97152908 -34.12215698 128.29608551 -34.1239624 127.60017395 C-34.12840158 125.33889265 -34.12542479 123.07768854 -34.12207031 120.81640625 C-34.12274539 119.22016383 -34.12371712 117.62392151 -34.12496948 116.02767944 C-34.12645128 112.64962809 -34.12428614 109.271603 -34.11962891 105.89355469 C-34.11408508 101.67737228 -34.11720779 97.46125509 -34.12306595 93.24507523 C-34.14317575 76.19520338 -34.02835209 59.15693739 -33.54394531 42.11328125 C-33.52453007 41.41149372 -33.50511482 40.70970619 -33.48511124 39.98665237 C-33.35346077 35.35280102 -33.17539861 30.72187759 -32.98925781 26.08984375 C-32.95015244 24.61924403 -32.91111167 23.14864259 -32.87213135 21.67803955 C-32.81740301 20.23144324 -32.76158781 18.78488757 -32.70458984 17.33837891 C-32.66318878 16.04437164 -32.62178772 14.75036438 -32.57913208 13.41714478 C-31.904415 9.61127132 -31.00245413 8.42074498 -27.98925781 6.08984375 C-26.11743164 5.19262695 -26.11743164 5.19262695 -24.19628906 4.640625 C-23.48867432 4.43268311 -22.78105957 4.22474121 -22.05200195 4.01049805 C-21.30942139 3.80980713 -20.56684082 3.60911621 -19.80175781 3.40234375 C-18.6463147 3.08100464 -18.6463147 3.08100464 -17.4675293 2.75317383 C-11.56554317 1.15569542 -6.09925668 0.27546962 0 0 Z " fill="#FDFEFD" transform="translate(308.9892578125,380.91015625)"/>
<path d="M0 0 C17.88922537 0.11578787 17.88922537 0.11578787 22.0390625 4.265625 C22.23077024 7.20613132 22.29805958 10.05339868 22.27856445 12.99462891 C22.28057861 13.89890625 22.28259277 14.80318359 22.28466797 15.73486328 C22.28821993 17.70356566 22.28743847 19.67227943 22.28289223 21.64097977 C22.27731129 24.76032943 22.28643914 27.87930548 22.3000946 30.99862671 C22.33726493 39.86938038 22.35578654 48.74001055 22.34448242 57.61083984 C22.33861875 63.03389439 22.35695903 68.45642725 22.39037132 73.87937546 C22.39831122 75.94373491 22.39706756 78.00815144 22.38634682 80.07249832 C22.37195946 82.96898894 22.38835522 85.8638522 22.41137695 88.76025391 C22.39960922 89.60731903 22.38784149 90.45438416 22.37571716 91.32711792 C22.46964296 97.38094449 24.10118973 101.61648144 28.0390625 106.265625 C31.37447911 108.48923607 33.09068122 108.4116997 37.00390625 108.23828125 C40.35374166 106.63730425 41.69106989 103.57590193 43.0390625 100.265625 C43.58746162 97.15114968 43.59381543 94.10646831 43.5690918 90.94970703 C43.57782318 90.04320908 43.58655457 89.13671112 43.59555054 88.20274353 C43.61982077 85.22610372 43.61652332 82.25016326 43.61328125 79.2734375 C43.62572955 77.2007428 43.64006465 75.12805865 43.65620422 73.0553894 C43.69417122 67.61423551 43.70941005 62.17326361 43.71899414 56.73199463 C43.73876907 48.00152106 43.79543926 39.27118574 43.84775734 30.54085922 C43.86315094 27.48679142 43.87030193 24.43279245 43.87590027 21.37869263 C43.88291196 19.52085332 43.89001251 17.66301435 43.8972168 15.80517578 C43.89642372 14.52263664 43.89642372 14.52263664 43.89561462 13.21418762 C43.92584188 7.37884562 43.92584188 7.37884562 45.0390625 6.265625 C52.76333866 5.8728652 60.47624891 6.6385655 68.0390625 8.265625 C70.70053333 10.92709583 70.29387399 12.92710162 70.33233643 16.54801941 C70.33143005 17.430569 70.33052368 18.31311859 70.32958984 19.22241211 C70.33630707 20.15113129 70.34302429 21.07985046 70.34994507 22.03671265 C70.36901543 25.12218517 70.37285497 28.20744087 70.375 31.29296875 C70.38142582 33.43852325 70.38815402 35.58407687 70.39517212 37.72962952 C70.4071704 42.23814929 70.41085074 46.74659233 70.40966797 51.25512695 C70.40946559 57.01166177 70.43667254 62.76769839 70.47121239 68.52411556 C70.49354573 72.96216553 70.4975034 77.40009732 70.49644852 81.83819771 C70.49879845 83.95872259 70.5075875 86.07925103 70.52311325 88.19972038 C70.62855368 104.10070627 69.54929024 117.12401284 58.15625 129.2734375 C50.66968967 136.29025287 44.09967437 137.72776039 33.97265625 137.61743164 C21.86086593 137.20775147 14.61259318 132.14743841 6.3515625 123.640625 C0.61104336 117.10694259 -4.07455727 107.9497595 -4.09465027 99.08396912 C-4.10104774 97.80737427 -4.10104774 97.80737427 -4.10757446 96.50498962 C-4.10712128 95.57449295 -4.10666809 94.64399628 -4.10620117 93.68530273 C-4.10955978 92.70296661 -4.1129184 91.72063049 -4.11637878 90.70852661 C-4.12589253 87.4554112 -4.12783191 84.20234721 -4.12890625 80.94921875 C-4.1321178 78.69385252 -4.13548179 76.43848651 -4.13899231 74.18312073 C-4.14498412 69.45451372 -4.14683208 64.72592499 -4.14624023 59.99731445 C-4.14613844 53.92507676 -4.15980828 47.85295555 -4.17701244 41.78074551 C-4.18810422 37.12347368 -4.19016034 32.4662303 -4.18963051 27.80894661 C-4.19081422 25.56935282 -4.1952577 23.32975838 -4.20296288 21.09017754 C-4.21270883 17.96555159 -4.2099065 14.8411824 -4.20385742 11.71655273 C-4.20947693 10.78403183 -4.21509644 9.85151093 -4.22088623 8.89073181 C-4.21669174 8.0424884 -4.21249725 7.194245 -4.20817566 6.32029724 C-4.20872043 5.58122855 -4.20926519 4.84215986 -4.20982647 4.08069515 C-3.83263361 1.32994451 -2.71513431 0.36778712 0 0 Z " fill="#FEFEFE" transform="translate(595.9609375,371.734375)"/>
<path d="M0 0 C1.31473624 -0.00199105 2.62947247 -0.0039821 3.9840492 -0.00603348 C5.4363096 -0.00318075 6.88856981 -0.00023516 8.34082985 0.00279331 C9.8886837 0.00235714 11.43653747 0.00148139 12.98439085 0.00020415 C17.23503281 -0.00203183 21.48564957 0.00196823 25.73628831 0.00698221 C30.32109275 0.01129937 34.90589577 0.00983938 39.49070168 0.00907993 C47.43329518 0.0085555 55.37588047 0.01169387 63.31847191 0.01731777 C74.802136 0.0254437 86.28579612 0.02804912 97.76946278 0.02930576 C116.40080817 0.03149456 135.03214919 0.03814999 153.6634922 0.04760838 C171.76245032 0.05678694 189.86140724 0.06385414 207.9603672 0.06811619 C209.08730535 0.06838419 210.2142435 0.06865218 211.37533128 0.0689283 C220.18868603 0.07100772 229.00204081 0.07296464 237.81539559 0.07488286 C281.01720655 0.08431709 324.21900656 0.10443527 367.42081642 0.12304783 C367.42081642 112.65304783 367.42081642 225.18304783 367.42081642 341.12304783 C366.10081642 341.12304783 364.78081642 341.12304783 363.42081642 341.12304783 C363.42081642 230.24304783 363.42081642 119.36304783 363.42081642 5.12304783 C-106.82918358 5.61804783 -106.82918358 5.61804783 -586.57918358 6.12304783 C-586.90918358 36.81304783 -587.23918358 67.50304783 -587.57918358 99.12304783 C-590.05418358 99.61804783 -590.05418358 99.61804783 -592.57918358 100.12304783 C-592.33540395 99.2595075 -592.33540395 99.2595075 -592.08669949 98.37852192 C-591.59059732 96.17377214 -591.45594746 94.28955021 -591.45892906 92.03546238 C-591.4575544 91.23061909 -591.45617973 90.42577579 -591.45476341 89.59654331 C-591.45835869 88.72260426 -591.46195396 87.8486652 -591.46565819 86.94824314 C-591.46551216 86.02106983 -591.46536613 85.09389652 -591.46521568 84.13862705 C-591.46591196 81.07611846 -591.47369109 78.01367079 -591.48152733 74.95117283 C-591.48339252 72.82696662 -591.48481595 70.70275999 -591.48581505 68.5785532 C-591.48963227 62.98902288 -591.4994558 57.39951856 -591.51051903 51.80999851 C-591.52075021 46.10575811 -591.52531633 40.40151351 -591.53035545 34.69726658 C-591.54107876 23.50584891 -591.55814567 12.31445053 -591.57918358 1.12304783 C-589.74488141 1.12361741 -589.74488141 1.12361741 -587.87352264 1.1241985 C-533.99335669 1.14086347 -480.11319051 1.1562918 -426.23302269 1.16539097 C-425.417613 1.16552903 -424.6022033 1.16566708 -423.76208422 1.16580932 C-406.04206987 1.16880206 -388.32205548 1.17157227 -370.60204106 1.17411316 C-361.91245575 1.17536052 -353.22287044 1.17665707 -344.53328514 1.17797947 C-343.66855578 1.17811023 -342.80382641 1.17824099 -341.91289313 1.17837571 C-313.87228307 1.1826389 -285.83167502 1.19015159 -257.79106618 1.19934505 C-228.98153472 1.20877348 -200.17200437 1.21493231 -171.36247139 1.21696282 C-167.29559059 1.21725098 -163.22870979 1.21757662 -159.16182899 1.21792507 C-158.3613894 1.21799249 -157.56094981 1.21805992 -156.73625448 1.21812938 C-143.83879263 1.21931222 -130.94133422 1.22395328 -118.04387378 1.22987986 C-105.08520939 1.23576105 -92.12654841 1.23801733 -79.16788273 1.23654921 C-71.46398917 1.23578723 -63.76010809 1.23782882 -56.05621678 1.24384537 C-50.31075219 1.24802684 -44.56529804 1.24701451 -38.81983317 1.24394672 C-36.48999721 1.24352239 -34.16016021 1.24480653 -31.8303263 1.24793101 C-28.67350591 1.25191989 -25.51674749 1.24979551 -22.35992813 1.24609566 C-21.4467742 1.24872267 -20.53362027 1.25134968 -19.59279501 1.2540563 C-12.98042739 1.2364379 -6.60491301 -0.00221196 0 0 Z " fill="#60C587" transform="translate(612.5791835784912,22.876952171325684)"/>
<path d="M0 0 C2.49057251 2.49057251 2.2565813 3.28472659 2.265625 6.71875 C2.26949219 8.11673828 2.26949219 8.11673828 2.2734375 9.54296875 C2.26570313 10.51878906 2.25796875 11.49460937 2.25 12.5 C2.26160156 13.96373047 2.26160156 13.96373047 2.2734375 15.45703125 C2.27085937 16.38902344 2.26828125 17.32101562 2.265625 18.28125 C2.26336914 19.13783203 2.26111328 19.99441406 2.25878906 20.87695312 C2 23 2 23 0 25 C-2.49023438 25.48657227 -2.49023438 25.48657227 -5.59375 25.81640625 C-6.70621094 25.94080078 -7.81867188 26.06519531 -8.96484375 26.19335938 C-10.13144531 26.31517578 -11.29804688 26.43699219 -12.5 26.5625 C-14.80243575 26.81055247 -17.10454104 27.06169802 -19.40625 27.31640625 C-20.43041016 27.42412354 -21.45457031 27.53184082 -22.50976562 27.64282227 C-24.9938814 27.86540158 -24.9938814 27.86540158 -27 29 C-27.33 37.58 -27.66 46.16 -28 55 C-23.545 54.505 -23.545 54.505 -19 54 C-16.66780687 53.91600152 -14.33369884 53.86949599 -12 53.875 C-10.88625 53.87242187 -9.7725 53.86984375 -8.625 53.8671875 C-6 54 -6 54 -5 55 C-4.74843731 58.63899175 -4.81477774 62.29083673 -4.8125 65.9375 C-4.80025391 66.96552734 -4.78800781 67.99355469 -4.77539062 69.05273438 C-4.77345703 70.03435547 -4.77152344 71.01597656 -4.76953125 72.02734375 C-4.76542236 72.93218506 -4.76131348 73.83702637 -4.75708008 74.76928711 C-5 77 -5 77 -7 79 C-9.04711914 79.37890625 -9.04711914 79.37890625 -11.53515625 79.5625 C-12.87223633 79.67464844 -12.87223633 79.67464844 -14.23632812 79.7890625 C-16.12432734 79.92997744 -18.01234831 80.07060125 -19.90039062 80.2109375 C-20.79048828 80.28570312 -21.68058594 80.36046875 -22.59765625 80.4375 C-23.41758057 80.49808594 -24.23750488 80.55867188 -25.08227539 80.62109375 C-25.71512451 80.74613281 -26.34797363 80.87117188 -27 81 C-28.35700647 83.71401294 -28.1123861 85.84846316 -28.09765625 88.8828125 C-28.09443359 90.04941406 -28.09121094 91.21601563 -28.08789062 92.41796875 C-28.07951172 93.64128906 -28.07113281 94.86460937 -28.0625 96.125 C-28.05798828 97.35605469 -28.05347656 98.58710938 -28.04882812 99.85546875 C-28.0370133 102.90369392 -28.02054028 105.95182314 -28 109 C-27.06615479 108.99476318 -26.13230957 108.98952637 -25.17016602 108.98413086 C-21.71687204 108.9671238 -18.26362233 108.95456698 -14.81030273 108.94506836 C-13.31355082 108.94002879 -11.81680384 108.93319713 -10.32006836 108.92456055 C-8.17300193 108.91247841 -6.02600038 108.90676809 -3.87890625 108.90234375 C-1.93866577 108.89448853 -1.93866577 108.89448853 0.04077148 108.88647461 C3 109 3 109 4 110 C4.27873542 113.26247141 4.23180422 116.53953453 4.25 119.8125 C4.270625 120.72837891 4.29125 121.64425781 4.3125 122.58789062 C4.32023437 123.91530273 4.32023437 123.91530273 4.328125 125.26953125 C4.34214355 126.48539917 4.34214355 126.48539917 4.35644531 127.72583008 C3.8820361 130.75262583 3.30289897 131.9438706 1 134 C-1.78283122 134.56785493 -4.23258514 134.88175949 -7.04296875 135.046875 C-7.84422684 135.10780334 -8.64548492 135.16873169 -9.47102356 135.23150635 C-11.17431249 135.35757732 -12.87828612 135.47466892 -14.58276367 135.58349609 C-17.13436791 135.74660361 -19.68299407 135.93499004 -22.23242188 136.12890625 C-32.50463873 136.87799634 -42.70111575 137.16143858 -53 137 C-54.15805159 134.68389682 -54.1257214 133.36481131 -54.12698364 130.7872467 C-54.12980347 129.90322678 -54.13262329 129.01920685 -54.13552856 128.10839844 C-54.13350433 127.13555908 -54.1314801 126.16271973 -54.12939453 125.16040039 C-54.13114685 124.13724228 -54.13289917 123.11408417 -54.13470459 122.05992126 C-54.13912662 118.65581595 -54.1361802 115.25176216 -54.1328125 111.84765625 C-54.13348632 109.47464488 -54.134457 107.10163357 -54.13571167 104.72862244 C-54.13718983 99.73582304 -54.13503356 94.74304147 -54.13037109 89.75024414 C-54.1247263 83.40055671 -54.12791833 77.05091203 -54.13394356 70.70122623 C-54.13759122 65.78763011 -54.13639057 60.87404377 -54.13381577 55.96044731 C-54.13315531 53.6232649 -54.13394358 51.28608155 -54.13629532 48.94890022 C-54.14488318 37.99626536 -54.11297046 27.04478422 -53.67919922 16.09936523 C-53.65723543 15.31569863 -53.63527164 14.53203203 -53.61264229 13.72461796 C-53.35828967 8.50057558 -53.35828967 8.50057558 -51.59017944 6.03030396 C-49.51749167 4.68737476 -47.87235788 4.41510298 -45.421875 4.12109375 C-44.5155835 4.00548096 -43.60929199 3.88986816 -42.67553711 3.77075195 C-41.71010986 3.66077881 -40.74468262 3.55080566 -39.75 3.4375 C-37.74607589 3.19024885 -35.74216968 2.94285262 -33.73828125 2.6953125 C-32.26609131 2.51983887 -32.26609131 2.51983887 -30.76416016 2.34082031 C-28.3922382 2.04836288 -26.03096613 1.72341826 -23.66796875 1.3671875 C-15.85520062 0.20549842 -7.89919962 -0.83537414 0 0 Z " fill="#FCFEFD" transform="translate(410,369)"/>
<path d="M0 0 C0 4.29 0 8.58 0 13 C1.98 13 3.96 13 6 13 C9.61651628 14.80825814 11.54930193 15.93917325 13.1484375 19.703125 C14.07225532 23.2797408 14.33513434 26.4334399 14.375 30.125 C14.40335937 31.32382812 14.43171875 32.52265625 14.4609375 33.7578125 C14 37 14 37 12.31640625 39.28515625 C9.78922139 41.15604015 7.5197072 42.25020227 4.5625 43.3125 C3.63566406 43.65925781 2.70882812 44.00601563 1.75390625 44.36328125 C-1.28729571 45.0664244 -3.05408376 44.99551652 -6 44 C-7.8125 41.4375 -7.8125 41.4375 -9 39 C-13.82585093 39.19876946 -13.82585093 39.19876946 -17.69921875 41.7109375 C-20.09126656 45.92036699 -19.68365289 50.31697771 -19 55 C-15.85318087 60.73170627 -10.45969762 63.43625339 -5.0703125 66.9453125 C4.33137406 73.23702641 11.08598548 80.4460092 13.6328125 91.828125 C15.25884837 105.8743072 14.40409877 117.3990259 6.1875 129.375 C2.21167772 134.295979 -2.6562533 138.7735423 -9 140 C-8.95359375 140.74765625 -8.9071875 141.4953125 -8.859375 142.265625 C-8.82328125 143.25046875 -8.7871875 144.2353125 -8.75 145.25 C-8.70359375 146.22453125 -8.6571875 147.1990625 -8.609375 148.203125 C-9 151 -9 151 -10.64453125 153.24609375 C-13.39288665 155.29254744 -15.60937485 156.0276836 -18.9375 156.8125 C-19.95714844 157.06644531 -20.97679687 157.32039062 -22.02734375 157.58203125 C-25.04415757 158.00620875 -27.09171867 157.84803194 -30 157 C-31 156 -31 156 -31.09765625 153.27734375 C-31.08605469 152.17519531 -31.07445312 151.07304688 -31.0625 149.9375 C-31.05347656 148.83277344 -31.04445312 147.72804688 -31.03515625 146.58984375 C-31.02355469 145.73519531 -31.01195312 144.88054687 -31 144 C-32.03125 143.938125 -33.0625 143.87625 -34.125 143.8125 C-38.53187093 142.88847868 -41.12916773 141.37696166 -44 138 C-47.76807489 132.05988194 -49.12897029 126.387767 -49.3125 119.375 C-49.34988281 118.43398438 -49.38726562 117.49296875 -49.42578125 116.5234375 C-49 114 -49 114 -47.21875 112.23828125 C-41.74489871 109.18333256 -36.11421545 108.74524102 -30 109 C-29.65066406 109.71027344 -29.30132812 110.42054688 -28.94140625 111.15234375 C-28.25884766 112.53099609 -28.25884766 112.53099609 -27.5625 113.9375 C-27.11003906 114.85402344 -26.65757812 115.77054687 -26.19140625 116.71484375 C-25.19474606 118.90528904 -25.19474606 118.90528904 -24 120 C-19.87590386 120.39654771 -17.67510915 120.42561229 -14.125 118.1875 C-11.25301291 115.2310427 -10.81975475 112.73156405 -10.6875 108.75 C-10.78654377 104.03399296 -11.88314662 100.58157703 -15 97 C-18.92473303 93.45576173 -23.14318732 90.32799243 -27.44140625 87.25390625 C-35.19430997 81.57369083 -39.82834731 75.47272939 -42 66 C-43.07034402 55.90376273 -42.68315701 46.14528006 -38 37 C-37.49082031 35.98164063 -36.98164063 34.96328125 -36.45703125 33.9140625 C-32.98506812 27.47861597 -29.20321426 22.0499146 -23 18 C-22.34 18 -21.68 18 -21 18 C-21.05220703 17.11248047 -21.05220703 17.11248047 -21.10546875 16.20703125 C-21.22898116 12.60164533 -21.21025862 9.63077585 -20.0625 6.1875 C-14.84772969 0.656683 -7.22766964 -1.44553393 0 0 Z " fill="#FCFDFD" transform="translate(249,385)"/>
<path d="M0 0 C5.98998682 4.47661559 10.65106575 11.19282873 12.125 18.5625 C12.51895545 22.30237844 12.69522274 25.83504399 12.125 29.5625 C10.125 31.5625 10.125 31.5625 7.125 32.5625 C6.485625 32.84609375 5.84625 33.1296875 5.1875 33.421875 C2.12495394 34.74433807 -0.3348218 35.55049604 -3.6875 35.625 C-6.93278508 34.04871868 -7.6042666 31.83965457 -8.875 28.5625 C-8.875 27.9025 -8.875 27.2425 -8.875 26.5625 C-13.20094837 24.11995772 -16.99399015 23.75774569 -21.875 24.5625 C-28.23370563 28.66033252 -29.77998484 36.29998336 -31.56640625 43.25390625 C-35.03616852 61.08799904 -35.83070118 85.31408774 -27.19140625 101.671875 C-25.85110039 103.84267296 -25.85110039 103.84267296 -22.875 105.5625 C-17.86735914 106.02617045 -14.85962087 105.68558122 -10.875 102.5625 C-8.09837569 99.45921401 -5.93812752 96.17297317 -3.875 92.5625 C0.44380363 92.78980545 3.73921936 94.17890125 7.5 96.1875 C8.37398438 96.65414062 9.24796875 97.12078125 10.1484375 97.6015625 C12.125 99.5625 12.125 99.5625 12.640625 102.7734375 C12.02643353 107.28681418 10.61413216 110.57188543 8.5 114.5625 C8.13390625 115.26729492 7.7678125 115.97208984 7.390625 116.69824219 C2.69977819 125.50998151 -1.95898276 131.03683283 -11.69921875 134.14453125 C-20.42663587 135.82107278 -29.33879022 135.48440445 -36.875 130.5625 C-46.39954208 123.81296548 -52.16051736 114.47709355 -55.875 103.5625 C-56.19919922 102.65218018 -56.52339844 101.74186035 -56.85742188 100.80395508 C-60.14264037 90.33902083 -60.22257747 79.2487605 -60.19067383 68.37670898 C-60.18750734 66.13020473 -60.21111032 63.88501553 -60.23632812 61.63867188 C-60.32279209 42.15803511 -56.27561578 22.45751717 -42.875 7.5625 C-32.08653506 -2.71582736 -13.81225844 -7.57989793 0 0 Z " fill="#FCFEFD" transform="translate(481.875,367.4375)"/>
<path d="M0 0 C8.25985362 0.08781473 16.1544864 1.73347012 24.125 3.75 C25.20523438 4.01731934 26.28546875 4.28463867 27.3984375 4.56005859 C30.60262837 5.35968265 33.80203381 6.17586572 37 7 C37.9084668 7.23299805 38.81693359 7.46599609 39.75292969 7.70605469 C61.28470429 13.28470429 61.28470429 13.28470429 66 18 C66.24291992 20.13891602 66.24291992 20.13891602 66.23046875 22.75390625 C66.22853516 23.69041016 66.22660156 24.62691406 66.22460938 25.59179688 C66.21236328 26.57212891 66.20011719 27.55246094 66.1875 28.5625 C66.1865332 30.03879883 66.1865332 30.03879883 66.18554688 31.54492188 C66.14017532 38.85982468 66.14017532 38.85982468 65 40 C58.57090256 39.4047132 52.37545442 38.15917353 46 37 C46 70.99 46 104.98 46 140 C35.8019802 140 35.8019802 140 30.125 138.625 C29.03445313 138.36976563 27.94390625 138.11453125 26.8203125 137.8515625 C24 137 24 137 21 135 C20.6885591 132.46393272 20.57291714 130.16679652 20.58349609 127.62646484 C20.57491074 126.86493103 20.56632538 126.10339722 20.55747986 125.31878662 C20.53225978 122.7827445 20.52801851 120.24709409 20.5234375 117.7109375 C20.50911039 115.93281889 20.49335032 114.15471131 20.47622681 112.37661743 C20.43421725 107.66760505 20.40936434 102.95866053 20.38873291 98.24951172 C20.35317159 90.80597491 20.29205559 83.36257306 20.23233795 75.91919708 C20.21809498 74.11672711 20.20449721 72.31425191 20.19155121 70.51177216 C20.09041209 56.65587184 19.75649916 42.83800474 19 29 C17.5584331 28.51133086 16.11615736 28.02475245 14.67358398 27.5390625 C13.87049301 27.26787598 13.06740204 26.99668945 12.23997498 26.71728516 C9.14733517 25.72695953 6.04236907 25.16590376 2.84765625 24.625 C1 24 1 24 -1 21 C-1.24291992 18.83935547 -1.24291992 18.83935547 -1.23046875 16.3671875 C-1.22853516 15.47902344 -1.22660156 14.59085937 -1.22460938 13.67578125 C-1.21236328 12.75152344 -1.20011719 11.82726562 -1.1875 10.875 C-1.18685547 9.94300781 -1.18621094 9.01101563 -1.18554688 8.05078125 C-1.14028159 1.14028159 -1.14028159 1.14028159 0 0 Z " fill="#FDFEFD" transform="translate(724,390)"/>
<path d="M0 0 C0.33 0 0.66 0 1 0 C1 316.8 1 633.6 1 960 C-316.46 960 -633.92 960 -961 960 C-961 924.36 -961 888.72 -961 852 C-960.67 852 -960.34 852 -960 852 C-960 887.31 -960 922.62 -960 959 C-643.86 958.67 -327.72 958.34 -2 958 C-0.72297416 955.44594832 -0.86921298 953.64848675 -0.8613348 950.78758049 C-0.85312313 949.12002765 -0.85312313 949.12002765 -0.84474558 947.41878688 C-0.84376747 946.18729101 -0.84278936 944.95579513 -0.84178162 943.6869812 C-0.83437465 941.73656345 -0.83437465 941.73656345 -0.82681805 939.74674332 C-0.8132002 936.12556473 -0.80580807 932.50439556 -0.79939139 928.88319802 C-0.79140341 924.9827083 -0.77770015 921.08223828 -0.76467896 917.1817627 C-0.74289341 910.41992686 -0.72475654 903.65808906 -0.70907402 896.89623642 C-0.68639429 887.11964442 -0.65824886 877.34307422 -0.62875474 867.56650068 C-0.58105554 851.70596449 -0.53779768 835.84541941 -0.49731445 819.98486328 C-0.45797136 804.57469998 -0.416548 789.1645446 -0.37231445 773.75439453 C-0.36822804 772.33038581 -0.36822804 772.33038581 -0.36405908 770.87760924 C-0.3503798 766.11521575 -0.33665949 761.35282238 -0.32291877 756.59042907 C-0.20891742 717.0603025 -0.10211617 677.53015895 0 638 C-1.32 638 -2.64 638 -4 638 C-4 742.28 -4 846.56 -4 954 C-4.33 954 -4.66 954 -5 954 C-5 640.83 -5 327.66 -5 5 C-4.67 5 -4.34 5 -4 5 C-4 115.88 -4 226.76 -4 341 C-2.68 341 -1.36 341 0 341 C0 228.47 0 115.94 0 0 Z " fill="#70AE88" transform="translate(980,23)"/>
<path d="M0 0 C1.77607338 0.00023397 1.77607338 0.00023397 3.58802703 0.00047267 C4.57840633 -0.00144447 4.57840633 -0.00144447 5.58879331 -0.00340034 C7.83346751 -0.00649837 10.07807327 -0.00237862 12.32274529 0.00162334 C13.94295601 0.00088469 15.56316658 -0.00029282 17.18337669 -0.00187286 C21.6759289 -0.00496187 26.16845872 -0.00175076 30.66100927 0.00240542 C35.52206325 0.00581697 40.38311478 0.00346978 45.2441692 0.00182265 C53.78620756 -0.00026265 62.32823898 0.00140475 70.87027654 0.00545603 C83.73717274 0.01153857 96.60406471 0.01182757 109.4709621 0.01099074 C131.02984149 0.00974635 152.58871784 0.0130516 174.14759633 0.0190956 C203.2981966 0.02725355 232.44879166 0.02919759 261.59939381 0.03006667 C331.71336741 0.03532405 401.82734014 0.04928506 471.94131276 0.06217116 C706.78787526 0.09310866 706.78787526 0.09310866 946.37881276 0.12467116 C946.37881276 313.29467116 946.37881276 626.46467116 946.37881276 949.12467116 C632.87881276 949.12467116 319.37881276 949.12467116 -3.62118724 949.12467116 C-3.95118724 869.59467116 -4.28118724 790.06467116 -4.62118724 708.12467116 C-5.94118724 708.45467116 -7.26118724 708.78467116 -8.62118724 709.12467116 C-8.62118724 707.80467116 -8.62118724 706.48467116 -8.62118724 705.12467116 C-7.96118724 704.79467116 -7.30118724 704.46467116 -6.62118724 704.12467116 C-6.62118724 701.48467116 -6.62118724 698.84467116 -6.62118724 696.12467116 C-7.28118724 695.79467116 -7.94118724 695.46467116 -8.62118724 695.12467116 C-8.62118724 694.13467116 -8.62118724 693.14467116 -8.62118724 692.12467116 C-7.30118724 692.12467116 -5.98118724 692.12467116 -4.62118724 692.12467116 C-5.93014444 689.00269639 -5.93014444 689.00269639 -8.62118724 687.12467116 C-8.62118724 686.46467116 -8.62118724 685.80467116 -8.62118724 685.12467116 C-7.30118724 684.79467116 -5.98118724 684.46467116 -4.62118724 684.12467116 C-4.62118724 606.57467116 -4.62118724 529.02467116 -4.62118724 449.12467116 C-5.94118724 448.79467116 -7.26118724 448.46467116 -8.62118724 448.12467116 C-8.62118724 447.13467116 -8.62118724 446.14467116 -8.62118724 445.12467116 C-7.30118724 444.79467116 -5.98118724 444.46467116 -4.62118724 444.12467116 C-4.62118724 330.27467116 -4.62118724 216.42467116 -4.62118724 99.12467116 C-5.94118724 98.79467116 -7.26118724 98.46467116 -8.62118724 98.12467116 C-8.62118724 97.13467116 -8.62118724 96.14467116 -8.62118724 95.12467116 C-6.64118724 94.62967116 -6.64118724 94.62967116 -4.62118724 94.12467116 C-4.61087978 92.96178069 -4.60057231 91.79889022 -4.5899525 90.60076064 C-4.49239691 79.66692208 -4.38968025 68.7331427 -4.28184799 57.79940051 C-4.22657167 52.17761987 -4.17314428 46.55583407 -4.12387279 40.93399734 C-4.07629852 35.51344217 -4.0239585 30.09295246 -3.96824649 24.67247504 C-3.9477914 22.59954052 -3.92908366 20.52658803 -3.91211322 18.45362205 C-3.88813879 15.56078358 -3.85807511 12.66807008 -3.82650951 9.77530593 C-3.82075405 8.90928252 -3.81499858 8.04325912 -3.80906871 7.15099258 C-3.72198151 0.17702809 -3.72198151 0.17702809 0 0 Z M-2.62118724 1.12467116 C-2.62118724 313.63467116 -2.62118724 626.14467116 -2.62118724 948.12467116 C310.21881276 948.12467116 623.05881276 948.12467116 945.37881276 948.12467116 C945.37881276 635.61467116 945.37881276 323.10467116 945.37881276 1.12467116 C632.53881276 1.12467116 319.69881276 1.12467116 -2.62118724 1.12467116 Z " fill="#32403F" transform="translate(28.62118724361062,27.875328835099936)"/>
<path d="M0 0 C6.36248587 0.05321075 13.99592847 0.47267762 19.24352455 4.48865414 C21.11145074 6.87021225 21.00226644 8.37145707 21.00595093 11.38075256 C21.0144104 12.44216965 21.02286987 13.50358673 21.03158569 14.59716797 C21.025513 15.76143311 21.01944031 16.92569824 21.01318359 18.12524414 C21.01844055 19.35141953 21.02369751 20.57759491 21.02911377 21.84092712 C21.0400661 25.2046073 21.03748428 28.56773494 21.02797651 31.93138433 C21.02038808 35.44852146 21.02742309 38.96563478 21.03213501 42.48277283 C21.03759424 48.38837938 21.03039587 54.29387341 21.01611328 60.19946289 C20.9997788 67.03249719 21.00508023 73.86526307 21.0215925 80.69829088 C21.03519366 86.5607779 21.03713401 92.42318398 21.02927649 98.28568166 C21.02459335 101.78901569 21.0239927 105.29222342 21.03388596 108.79554939 C21.04413786 112.6985231 21.02994061 116.60119451 21.01318359 120.50415039 C21.01925629 121.67043976 21.02532898 122.83672913 21.03158569 124.0383606 C21.02312622 125.09695786 21.01466675 126.15555511 21.00595093 127.24623108 C21.00481985 128.16965837 21.00368877 129.09308565 21.00252342 130.04449558 C20.87794069 130.77231204 20.75335796 131.5001285 20.625 132.25 C14.78970905 136.14019396 6.0919081 133.65178074 -0.5625 132.375 C-4.375 131.25 -4.375 131.25 -6.375 128.25 C-6.62388897 125.90024376 -6.62388897 125.90024376 -6.62223816 123.07455444 C-6.62643265 122.00327805 -6.63062714 120.93200165 -6.63494873 119.82826233 C-6.62932922 118.65307541 -6.62370972 117.47788849 -6.61791992 116.26708984 C-6.61981827 115.0295546 -6.62171661 113.79201935 -6.62367249 112.51698303 C-6.62674527 109.12248316 -6.6208654 105.72822615 -6.61071944 102.33375502 C-6.6019429 98.7854626 -6.60369629 95.23717435 -6.6040802 91.68887329 C-6.60314359 85.73201291 -6.59445871 79.77520347 -6.58081055 73.81835938 C-6.56507064 66.92289969 -6.55981294 60.02749575 -6.5605461 53.1320194 C-6.56115552 46.50639722 -6.55605888 39.88079326 -6.54775429 33.25517654 C-6.54421601 30.43142174 -6.54239027 27.60767339 -6.54186058 24.78391647 C-6.54067353 20.8472978 -6.53097777 16.91072593 -6.52026367 12.97412109 C-6.52071686 11.79488571 -6.52117004 10.61565033 -6.52163696 9.40068054 C-6.51737198 8.33504379 -6.51310699 7.26940704 -6.50871277 6.17147827 C-6.50703692 5.23975485 -6.50536108 4.30803143 -6.50363445 3.34807396 C-6.24843447 -0.81432907 -3.59562975 0.05545958 0 0 Z " fill="#FBFDFC" transform="translate(691.375,383.75)"/>
<path d="M0 0 C317.46 0 634.92 0 962 0 C962 0.33 962 0.66 962 1 C961.20916942 1.00173625 960.41833884 1.0034725 959.6035437 1.00526136 C912.7487173 1.10825464 865.89390509 1.2163596 819.03910595 1.33111694 C813.4151495 1.34488677 807.79119295 1.35861383 802.16723633 1.37231445 C800.48776978 1.37640691 800.48776978 1.37640691 798.77437461 1.38058204 C780.63726928 1.42467576 762.50015775 1.46530298 744.36304157 1.50465261 C725.7573441 1.54509589 707.15165814 1.58925629 688.54597765 1.63687855 C677.06219813 1.66615442 665.57841946 1.6925193 654.09462494 1.71517897 C646.2233527 1.730988 638.35209454 1.75040252 630.48083793 1.77266841 C625.93729864 1.78541402 621.39377013 1.79655448 616.85021782 1.80341911 C612.69069837 1.80973859 608.53121621 1.82058477 604.37171728 1.8350333 C602.86689614 1.83946106 601.36206899 1.84222672 599.85724162 1.84316199 C597.81073449 1.84467727 595.7643344 1.85226368 593.71784878 1.8613348 C592.01309436 1.86532186 592.01309436 1.86532186 590.27390045 1.86938947 C586.98059899 1.94089823 586.98059899 1.94089823 583.67858404 2.5008015 C579.23058822 3.10441224 574.90717775 3.13780978 570.42480659 3.12584114 C569.47464519 3.12729458 568.52448378 3.12874802 567.5455296 3.13024551 C564.35529833 3.13390068 561.16511498 3.13042125 557.97488403 3.12698364 C555.66694517 3.12813566 553.35900648 3.12972373 551.05106819 3.13171089 C544.70341622 3.13589338 538.35577924 3.13381832 532.00812721 3.13072467 C525.86673987 3.12821028 519.72535406 3.13135784 513.58396714 3.13387203 C500.24408121 3.13913979 486.90420006 3.13868039 473.56431367 3.13579312 C461.88411138 3.13327753 450.20391085 3.13262087 438.52370834 3.13381577 C437.36151998 3.13393034 437.36151998 3.13393034 436.17585305 3.13404724 C433.03060588 3.13435858 429.88535871 3.13467698 426.74011154 3.135007 C397.22414227 3.13806706 367.70817604 3.13529141 338.19220724 3.1299101 C311.98913913 3.12516909 285.78607588 3.12558506 259.58300781 3.13037109 C230.13610442 3.13573165 200.68920373 3.13784534 171.24229991 3.13475883 C168.09968305 3.13443813 164.95706618 3.13412528 161.81444931 3.13381577 C160.65378572 3.13369715 160.65378572 3.13369715 159.46967438 3.13357614 C147.80590446 3.13244064 136.1421365 3.13376535 124.47836685 3.13629532 C111.20280188 3.13916056 97.92724244 3.13842725 84.65167816 3.13301457 C77.88107912 3.13034481 71.11049052 3.12934778 64.33989143 3.13266373 C58.13418945 3.13565692 51.92850637 3.13398372 45.72280608 3.12868617 C43.48517738 3.1275748 41.24754707 3.12812456 39.00991942 3.13056196 C26.63350583 3.14300246 14.34520321 2.91227426 2 2 C2.0169693 3.18937164 2.0339386 4.37874329 2.05142212 5.60415649 C2.21003105 16.81586478 2.35773396 28.02767083 2.49477577 39.23966408 C2.56557945 45.003779 2.6402172 50.76779099 2.72363281 56.53173828 C2.80400026 62.09482546 2.87427586 67.6579572 2.93757248 73.22126389 C2.96348479 75.34316068 2.99302589 77.46501638 3.02626419 79.58681107 C3.07221774 82.55996242 3.10523702 85.53299859 3.13525391 88.50634766 C3.1517952 89.3824469 3.16833649 90.25854614 3.18537903 91.16119385 C3.21799577 95.85956968 2.82100262 99.58012718 1 104 C2.32 104.33 3.64 104.66 5 105 C5.9501315 108.20332234 6.12131773 111.0760113 6.11352539 114.41113281 C6.11341209 116.03236053 6.11341209 116.03236053 6.11329651 117.68634033 C6.10813522 118.84687927 6.10297394 120.00741821 6.09765625 121.203125 C6.0962413 122.39605164 6.09482635 123.58897827 6.09336853 124.8180542 C6.08777038 128.62872829 6.07521819 132.43934366 6.0625 136.25 C6.05748476 138.83333248 6.0529219 141.41666589 6.04882812 144 C6.03780155 150.33335337 6.02106524 156.66667249 6 163 C5.67 163 5.34 163 5 163 C5 152.44 5 141.88 5 131 C4.34 131.33 3.68 131.66 3 132 C2.34 170.28 1.68 208.56 1 248 C2.32 248.33 3.64 248.66 5 249 C5 250.98 5 252.96 5 255 C4.67 254.34 4.34 253.68 4 253 C3.01 253 2.02 253 1 253 C1.495 255.475 1.495 255.475 2 258 C2.99 257.67 3.98 257.34 5 257 C5 258.98 5 260.96 5 263 C3.68 262.67 2.36 262.34 1 262 C1 288.4 1 314.8 1 342 C0.67 342 0.34 342 0 342 C0 229.14 0 116.28 0 0 Z " fill="#619277" transform="translate(19,22)"/>
<path d="M0 0 C0.33 0 0.66 0 1 0 C1 106.26 1 212.52 1 322 C-316.46 322 -633.92 322 -961 322 C-961 286.36 -961 250.72 -961 214 C-960.67 214 -960.34 214 -960 214 C-960 249.31 -960 284.62 -960 321 C-643.86 320.67 -327.72 320.34 -2 320 C-0.72297416 317.44594832 -0.86921298 315.64848675 -0.8613348 312.78758049 C-0.85312313 311.12002765 -0.85312313 311.12002765 -0.84474558 309.41878688 C-0.84376747 308.18729101 -0.84278936 306.95579513 -0.84178162 305.6869812 C-0.83437465 303.73656345 -0.83437465 303.73656345 -0.82681805 301.74674332 C-0.8132002 298.12556473 -0.80580807 294.50439556 -0.79939139 290.88319802 C-0.79140341 286.9827083 -0.77770015 283.08223828 -0.76467896 279.1817627 C-0.74289341 272.41992686 -0.72475654 265.65808906 -0.70907402 258.89623642 C-0.68639429 249.11964442 -0.65824886 239.34307422 -0.62875474 229.56650068 C-0.58105554 213.70596449 -0.53779768 197.84541941 -0.49731445 181.98486328 C-0.45797136 166.57469998 -0.416548 151.1645446 -0.37231445 135.75439453 C-0.36822804 134.33038581 -0.36822804 134.33038581 -0.36405908 132.87760924 C-0.3503798 128.11521575 -0.33665949 123.35282238 -0.32291877 118.59042907 C-0.20891742 79.0603025 -0.10211617 39.53015895 0 0 Z " fill="#78B18D" transform="translate(980,661)"/>
<path d="M0 0 C1.32 0 2.64 0 4 0 C4 84.48 4 168.96 4 256 C2.68 256 1.36 256 0 256 C0 171.52 0 87.04 0 0 Z " fill="#5FC687" transform="translate(976,403)"/>
<path d="M0 0 C3.84584283 0.02996761 6.34671583 0.16922727 9.375 2.625 C14.14022965 8.00115653 14.17738529 12.18630621 14.1875 19.125 C14.21199219 19.99382812 14.23648438 20.86265625 14.26171875 21.7578125 C14.28864065 27.73447329 13.33181737 32.44035456 9.8125 37.375 C5.20128181 40.72861323 1.31249338 40.83333278 -4.1875 40.375 C-6.77039791 37.79210209 -6.42505962 36.05205976 -6.43974304 32.53282166 C-6.43255753 31.73695145 -6.42537201 30.94108124 -6.41796875 30.12109375 C-6.41751053 29.30504166 -6.41705231 28.48898956 -6.4165802 27.64820862 C-6.41355744 25.92244005 -6.40567042 24.19667422 -6.39331055 22.47094727 C-6.37504978 19.81972667 -6.37280086 17.16885504 -6.37304688 14.51757812 C-6.36813194 12.84374696 -6.36230373 11.16991818 -6.35546875 9.49609375 C-6.35435593 8.69819931 -6.3532431 7.90030487 -6.35209656 7.07823181 C-6.2978441 0.83448942 -6.23300013 0.21870176 0 0 Z " fill="#43B97B" transform="translate(539.1875,391.625)"/>
<path d="M0 0 C3.28175318 2.52968474 4.69243777 4.07731331 6 8 C7.22492833 28.75311261 7.22492833 28.75311261 1.67578125 35.64453125 C-2.69832363 39.62829606 -7.20601826 41 -13 41 C-13.09882689 35.64320272 -13.17144782 30.28693515 -13.21972656 24.92944336 C-13.23985059 23.1067582 -13.26715296 21.28413766 -13.30175781 19.46166992 C-13.35024268 16.84277412 -13.37296009 14.22473121 -13.390625 11.60546875 C-13.41127014 10.78974899 -13.43191528 9.97402924 -13.45318604 9.1335907 C-13.45543006 3.48452387 -13.45543006 3.48452387 -11.11206055 0.99145508 C-7.41660994 -0.74328367 -3.97791536 -0.77289265 0 0 Z " fill="#42B97A" transform="translate(313,406)"/>
<path d="M0 0 C0.33 0 0.66 0 1 0 C1 22.11 1 44.22 1 67 C2.65 67 4.3 67 6 67 C6 84.49 6 101.98 6 120 C3.525 120.495 3.525 120.495 1 121 C1 121.66 1 122.32 1 123 C2.32 123.66 3.64 124.32 5 125 C5 125.99 5 126.98 5 128 C3.68 128 2.36 128 1 128 C1 128.99 1 129.98 1 131 C1.99 131.33 2.98 131.66 4 132 C4 134.64 4 137.28 4 140 C3.01 140.33 2.02 140.66 1 141 C1 186.87 1 232.74 1 280 C0.67 280 0.34 280 0 280 C0 187.6 0 95.2 0 0 Z " fill="#74AF8B" transform="translate(19,592)"/>
<path d="M0 0 C0.33 0 0.66 0 1 0 C1 178.86 1 357.72 1 542 C0.67 542 0.34 542 0 542 C-0.33 510.98 -0.66 479.96 -1 448 C-2.32 447.67 -3.64 447.34 -5 447 C-5 446.01 -5 445.02 -5 444 C-3.68 443.67 -2.36 443.34 -1 443 C-1 329.15 -1 215.3 -1 98 C-2.32 97.67 -3.64 97.34 -5 97 C-5 96.01 -5 95.02 -5 94 C-3.02 93.505 -3.02 93.505 -1 93 C-0.67 62.31 -0.34 31.62 0 0 Z " fill="#354644" transform="translate(25,29)"/>
<path d="M0 0 C1.32 0 2.64 0 4 0 C4 23.1 4 46.2 4 70 C2.68 70 1.36 70 0 70 C0 46.9 0 23.8 0 0 Z " fill="#5FC687" transform="translate(20,403)"/>
<path d="M0 0 C1.32 0 2.64 0 4 0 C4.33 22.11 4.66 44.22 5 67 C3.35 67 1.7 67 0 67 C0 44.89 0 22.78 0 0 Z " fill="#60C687" transform="translate(20,592)"/>
<path d="M0 0 C0.33 0 0.66 0 1 0 C1 38.61 1 77.22 1 117 C2.32 117.33 3.64 117.66 5 118 C5 119.98 5 121.96 5 124 C4.67 123.34 4.34 122.68 4 122 C3.01 122 2.02 122 1 122 C1.33 123.65 1.66 125.3 2 127 C3.485 126.505 3.485 126.505 5 126 C5 127.98 5 129.96 5 132 C3.68 131.67 2.36 131.34 1 131 C1 157.4 1 183.8 1 211 C0.67 211 0.34 211 0 211 C0 141.37 0 71.74 0 0 Z " fill="#79B18E" transform="translate(19,153)"/>
<path d="M0 0 C0 28.71 0 57.42 0 87 C-0.33 87 -0.66 87 -1 87 C-1 68.52 -1 50.04 -1 31 C-2.65 31 -4.3 31 -6 31 C-6.02895225 27.70835171 -6.0467823 24.41673601 -6.0625 21.125 C-6.07506836 19.71927734 -6.07506836 19.71927734 -6.08789062 18.28515625 C-6.09111328 17.38925781 -6.09433594 16.49335937 -6.09765625 15.5703125 C-6.10289307 14.74289551 -6.10812988 13.91547852 -6.11352539 13.06298828 C-6 11 -6 11 -5 9 C-4.01 9 -3.02 9 -2 9 C-1.67 7.68 -1.34 6.36 -1 5 C-2.32 4.67 -3.64 4.34 -5 4 C-5 3.01 -5 2.02 -5 1 C-1.125 0 -1.125 0 0 0 Z " fill="#64AC81" transform="translate(25,561)"/>
<path d="M0 0 C1.32 0 2.64 0 4 0 C4 17.16 4 34.32 4 52 C2.68 51.67 1.36 51.34 0 51 C0 34.17 0 17.34 0 0 Z " fill="#5FC787" transform="translate(20,661)"/>
<path d="M0 0 C0.66 0 1.32 0 2 0 C2 22.11 2 44.22 2 67 C0.68 66.67 -0.64 66.34 -2 66 C-1.89265162 57.54223786 -1.78004994 49.08456926 -1.66066074 40.62696934 C-1.60539585 36.70015386 -1.5519703 32.77333099 -1.50268555 28.84643555 C-1.45509439 25.05979158 -1.40275376 21.27324084 -1.34705925 17.48670769 C-1.32661182 16.03898362 -1.30790276 14.59123397 -1.29092598 13.14346504 C-1.26693492 11.12235841 -1.23629925 9.1013339 -1.20532227 7.08032227 C-1.18977798 5.92782486 -1.1742337 4.77532745 -1.15821838 3.58790588 C-1 1 -1 1 0 0 Z " fill="#5FC887" transform="translate(22,297)"/>
<path d="M0 0 C0.33 0 0.66 0 1 0 C1 53.46 1 106.92 1 162 C2.32 162.33 3.64 162.66 5 163 C5 164.98 5 166.96 5 169 C4.67 168.34 4.34 167.68 4 167 C3.01 167 2.02 167 1 167 C0.505 167.99 0.505 167.99 0 169 C0 113.23 0 57.46 0 0 Z " fill="#77AF8D" transform="translate(19,403)"/>
<path d="M0 0 C0.33 0 0.66 0 1 0 C1 51.48 1 102.96 1 156 C0.67 156 0.34 156 0 156 C-0.495 127.29 -0.495 127.29 -1 98 C-2.32 97.67 -3.64 97.34 -5 97 C-5 96.01 -5 95.02 -5 94 C-3.02 93.505 -3.02 93.505 -1 93 C-0.67 62.31 -0.34 31.62 0 0 Z " fill="#2C3739" transform="translate(25,29)"/>
<path d="M0 0 C0.02473868 3.93268867 0.04287835 7.86534713 0.05493164 11.7980957 C0.06242729 13.79314768 0.07513345 15.78817786 0.08789062 17.78320312 C0.09111328 19.03681641 0.09433594 20.29042969 0.09765625 21.58203125 C0.10289307 22.73936768 0.10812988 23.8967041 0.11352539 25.08911133 C0 28 0 28 -1 31 C-1.66 31.33 -2.32 31.66 -3 32 C-3.33 53.45 -3.66 74.9 -4 97 C-4.33 97 -4.66 97 -5 97 C-5 70.93 -5 44.86 -5 18 C-4.01 18 -3.02 18 -2 18 C-1.67 16.35 -1.34 14.7 -1 13 C-1.66 13 -2.32 13 -3 13 C-3.33 13.66 -3.66 14.32 -4 15 C-5 14 -5 14 -5.0625 11.4375 C-5.041875 10.633125 -5.02125 9.82875 -5 9 C-4.01 9 -3.02 9 -2 9 C-1.67 7.68 -1.34 6.36 -1 5 C-2.32 4.67 -3.64 4.34 -5 4 C-5 3.01 -5 2.02 -5 1 C-1.125 0 -1.125 0 0 0 Z " fill="#5FC084" transform="translate(25,266)"/>
<path d="M0 0 C0.99 0 1.98 0 3 0 C3.33 1.32 3.66 2.64 4 4 C3.34 4 2.68 4 2 4 C1.34 5.65 0.68 7.3 0 9 C0.66 9 1.32 9 2 9 C2 9.99 2 10.98 2 12 C2.99 11.67 3.98 11.34 5 11 C5 25.19 5 39.38 5 54 C4.67 54 4.34 54 4 54 C4 43.44 4 32.88 4 22 C3.34 22.33 2.68 22.66 2 23 C1.67 38.84 1.34 54.68 1 71 C0.67 71 0.34 71 0 71 C-0.14546432 64.38792174 -0.28745126 57.77577474 -0.42724609 51.16357422 C-0.47498588 48.92364898 -0.52346372 46.68373932 -0.57275391 44.44384766 C-0.82112732 33.13525422 -1.04771048 21.82712048 -1.09375 10.515625 C-1.1002356 9.6777948 -1.10672119 8.8399646 -1.11340332 7.97674561 C-1.11795052 2.23590105 -1.11795052 2.23590105 0 0 Z " fill="#62B783" transform="translate(20,131)"/>
<path d="M0 0 C1.32 0 2.64 0 4 0 C4 11.55 4 23.1 4 35 C2.35 35 0.7 35 -1 35 C-0.67 23.45 -0.34 11.9 0 0 Z " fill="#60C587" transform="translate(976,366)"/>
<path d="M0 0 C1.32 0 2.64 0 4 0 C4.33 11.55 4.66 23.1 5 35 C3.35 35 1.7 35 0 35 C0 23.45 0 11.9 0 0 Z " fill="#60C687" transform="translate(20,366)"/>
<path d="M0 0 C0 9.24 0 18.48 0 28 C-0.33 28 -0.66 28 -1 28 C-1 26.35 -1 24.7 -1 23 C-2.32 23.33 -3.64 23.66 -5 24 C-4.2884375 23.2265625 -4.2884375 23.2265625 -3.5625 22.4375 C-1.57190593 19.33217325 -1.34939182 16.63367496 -1 13 C-1.66 13 -2.32 13 -3 13 C-3.66 14.65 -4.32 16.3 -5 18 C-4.34 18 -3.68 18 -3 18 C-3.66 19.32 -4.32 20.64 -5 22 C-5.33 22 -5.66 22 -6 22 C-6.02696365 20.20841511 -6.04637917 18.41671527 -6.0625 16.625 C-6.07410156 15.62726562 -6.08570312 14.62953125 -6.09765625 13.6015625 C-6 11 -6 11 -5 9 C-4.01 9 -3.02 9 -2 9 C-1.67 7.68 -1.34 6.36 -1 5 C-2.32 4.67 -3.64 4.34 -5 4 C-5 3.01 -5 2.02 -5 1 C-1.125 0 -1.125 0 0 0 Z " fill="#518565" transform="translate(25,561)"/>
<path d="M0 0 C0.33 0.99 0.66 1.98 1 3 C1.66 3.33 2.32 3.66 3 4 C2.34 4 1.68 4 1 4 C1 4.66 1 5.32 1 6 C2.32 6.66 3.64 7.32 5 8 C5 8.99 5 9.98 5 11 C3.68 11 2.36 11 1 11 C1 11.99 1 12.98 1 14 C1.99 14.33 2.98 14.66 4 15 C4 17.64 4 20.28 4 23 C3.01 23.33 2.02 23.66 1 24 C1 26.97 1 29.94 1 33 C0.67 33 0.34 33 0 33 C0 22.11 0 11.22 0 0 Z " fill="#5FA279" transform="translate(19,709)"/>
<path d="M0 0 C0 9.24 0 18.48 0 28 C-0.33 28 -0.66 28 -1 28 C-1 26.35 -1 24.7 -1 23 C-2.32 23.33 -3.64 23.66 -5 24 C-5 22.02 -5 20.04 -5 18 C-4.01 18 -3.02 18 -2 18 C-1.67 16.35 -1.34 14.7 -1 13 C-1.66 13 -2.32 13 -3 13 C-3.33 13.66 -3.66 14.32 -4 15 C-5 14 -5 14 -5.0625 11.4375 C-5.041875 10.633125 -5.02125 9.82875 -5 9 C-4.01 9 -3.02 9 -2 9 C-1.67 7.68 -1.34 6.36 -1 5 C-2.32 4.67 -3.64 4.34 -5 4 C-5 3.01 -5 2.02 -5 1 C-1.125 0 -1.125 0 0 0 Z " fill="#5D8B6F" transform="translate(25,266)"/>
<path d="M0 0 C0 9.24 0 18.48 0 28 C-0.33 26.68 -0.66 25.36 -1 24 C-2.32 24.33 -3.64 24.66 -5 25 C-5 23.68 -5 22.36 -5 21 C-4.34 20.67 -3.68 20.34 -3 20 C-3 17.36 -3 14.72 -3 12 C-3.66 11.67 -4.32 11.34 -5 11 C-5 10.01 -5 9.02 -5 8 C-3.68 8 -2.36 8 -1 8 C-2.3089572 4.87802522 -2.3089572 4.87802522 -5 3 C-5 2.34 -5 1.68 -5 1 C-1.125 0 -1.125 0 0 0 Z " fill="#4E745E" transform="translate(25,712)"/>
<path d="M0 0 C0.99 0 1.98 0 3 0 C3.33 1.32 3.66 2.64 4 4 C3.34 4 2.68 4 2 4 C1.34 5.65 0.68 7.3 0 9 C0.66 9 1.32 9 2 9 C2 9.99 2 10.98 2 12 C2.99 11.67 3.98 11.34 5 11 C5 13.64 5 16.28 5 19 C3.68 19 2.36 19 1 19 C0.34 19.99 -0.32 20.98 -1 22 C-1.02895225 18.70835171 -1.0467823 15.41673601 -1.0625 12.125 C-1.07506836 10.71927734 -1.07506836 10.71927734 -1.08789062 9.28515625 C-1.09111328 8.38925781 -1.09433594 7.49335938 -1.09765625 6.5703125 C-1.10289307 5.74289551 -1.10812988 4.91547852 -1.11352539 4.06298828 C-1 2 -1 2 0 0 Z " fill="#5B9672" transform="translate(20,131)"/>
<path d="M0 0 C0.33 0 0.66 0 1 0 C1 4.62 1 9.24 1 14 C2.98 14.495 2.98 14.495 5 15 C5 16.98 5 18.96 5 21 C4.67 20.34 4.34 19.68 4 19 C3.01 19 2.02 19 1 19 C1.33 20.65 1.66 22.3 2 24 C2.99 23.67 3.98 23.34 5 23 C5 24.98 5 26.96 5 29 C3.68 28.67 2.36 28.34 1 28 C1 29.65 1 31.3 1 33 C0.67 33 0.34 33 0 33 C0 22.11 0 11.22 0 0 Z " fill="#7EAA8F" transform="translate(19,256)"/>
<path d="M0 0 C0.33 0 0.66 0 1 0 C1 1.98 1 3.96 1 6 C2.98 6.495 2.98 6.495 5 7 C6.416354 11.91080115 6.74069387 16.94121846 6 22 C3.5 24.1875 3.5 24.1875 1 25 C1.66 23.35 2.32 21.7 3 20 C2.34 20 1.68 20 1 20 C1.3125 18.0625 1.3125 18.0625 2 16 C2.99 15.67 3.98 15.34 5 15 C4.67 13.68 4.34 12.36 4 11 C3.01 11 2.02 11 1 11 C0.67 11.66 0.34 12.32 0 13 C0 8.71 0 4.42 0 0 Z " fill="#65A980" transform="translate(19,120)"/>
<path d="M0 0 C7.57392341 3.49291527 15.443851 8.93011362 20 16 C20.3125 18.875 20.3125 18.875 20 21 C18.72144658 19.08216987 17.49154752 17.13040371 16.328125 15.140625 C13.55974519 11.40609921 10.59133364 9.27965874 6.75 6.75 C4.44874447 5.21582964 2.22208474 3.65171005 0 2 C0 1.34 0 0.68 0 0 Z " fill="#38B774" transform="translate(218,470)"/>
<path d="M0 0 C0.33 0 0.66 0 1 0 C1 4.62 1 9.24 1 14 C2.98 14.495 2.98 14.495 5 15 C5 16.98 5 18.96 5 21 C4.67 20.34 4.34 19.68 4 19 C3.01 19 2.02 19 1 19 C0.67 19.66 0.34 20.32 0 21 C0 14.07 0 7.14 0 0 Z " fill="#7BAE8E" transform="translate(19,551)"/>
<path d="M0 0 C0.33 0.33 0.66 0.66 1 1 C3.01594582 1.23427778 5.038474 1.41336124 7.0625 1.5625 C8.16722656 1.64628906 9.27195312 1.73007812 10.41015625 1.81640625 C11.26480469 1.87699219 12.11945312 1.93757812 13 2 C13 2.33 13 2.66 13 3 C2.6094206 3.12288464 -7.63946908 2.83360594 -18 2 C-18 1.67 -18 1.34 -18 1 C-15.93769732 0.8309093 -13.8751477 0.66482867 -11.8125 0.5 C-10.08966797 0.36078125 -10.08966797 0.36078125 -8.33203125 0.21875 C-5.53347588 0.03502304 -2.80146433 -0.12291617 0 0 Z " fill="#3AA770" transform="translate(612,621)"/>
<path d="M0 0 C1.32 0.33 2.64 0.66 4 1 C4 5.62 4 10.24 4 15 C2.02 15.99 2.02 15.99 0 17 C0 15.68 0 14.36 0 13 C0.66 12.67 1.32 12.34 2 12 C2 9.36 2 6.72 2 4 C1.34 3.67 0.68 3.34 0 3 C0 2.01 0 1.02 0 0 Z " fill="#1A2820" transform="translate(20,720)"/>
<path d="M0 0 C0.33 0 0.66 0 1 0 C1.12886183 7.40239645 0.79725902 14.63959083 0 22 C-0.33 22 -0.66 22 -1 22 C-1.22201613 19.0837882 -1.42808498 16.16792256 -1.625 13.25 C-1.72167969 12.0125 -1.72167969 12.0125 -1.8203125 10.75 C-1.871875 9.95078125 -1.9234375 9.1515625 -1.9765625 8.328125 C-2.02893066 7.5949707 -2.08129883 6.86181641 -2.13525391 6.10644531 C-1.97767085 3.65224559 -1.22264839 2.11146787 0 0 Z " fill="#216F4F" transform="translate(161,526)"/>
<path d="M0 0 C0.33 0 0.66 0 1 0 C1 6.93 1 13.86 1 21 C-0.98 21 -2.96 21 -5 21 C-4.35546875 20.52046875 -3.7109375 20.0409375 -3.046875 19.546875 C-0.12888423 15.91609259 -0.33272759 12.7849761 -0.25 8.25 C-0.22035156 7.45722656 -0.19070313 6.66445313 -0.16015625 5.84765625 C-0.08972213 3.89897906 -0.04256518 1.94948505 0 0 Z " fill="#72AA88" transform="translate(980,962)"/>
<path d="M0 0 C0.99 0.33 1.98 0.66 3 1 C3 1.99 3 2.98 3 4 C0.03 4.66 -2.94 5.32 -6 6 C-6 5.34 -6 4.68 -6 4 C-3.1875 1.8125 -3.1875 1.8125 0 0 Z " fill="#175B42" transform="translate(189,607)"/>
<path d="M0 0 C0 0.33 0 0.66 0 1 C-1.98 1 -3.96 1 -6 1 C-6 1.66 -6 2.32 -6 3 C-11.28 2.67 -16.56 2.34 -22 2 C-22 1.67 -22 1.34 -22 1 C-14.65623924 0.42240084 -7.36901413 -0.14738028 0 0 Z " fill="#226F50" transform="translate(423,557)"/>
<path d="M0 0 C0.66 0 1.32 0 2 0 C2.25 3.3125 2.25 3.3125 2 7 C0 8.9375 0 8.9375 -2 10 C-1.34 8.35 -0.68 6.7 0 5 C-0.66 5 -1.32 5 -2 5 C-1.125 1.125 -1.125 1.125 0 0 Z " fill="#5EBF83" transform="translate(22,574)"/>
<path d="M0 0 C0.66 0 1.32 0 2 0 C2.25 3.3125 2.25 3.3125 2 7 C0 8.9375 0 8.9375 -2 10 C-1.34 8.35 -0.68 6.7 0 5 C-0.66 5 -1.32 5 -2 5 C-1.125 1.125 -1.125 1.125 0 0 Z " fill="#5EBF83" transform="translate(22,135)"/>
<path d="M0 0 C5.61 0.33 11.22 0.66 17 1 C17 1.33 17 1.66 17 2 C11.06 2.495 11.06 2.495 5 3 C5 2.34 5 1.68 5 1 C3.35 1 1.7 1 0 1 C0 0.67 0 0.34 0 0 Z " fill="#369C6A" transform="translate(646,585)"/>
<path d="M0 0 C0.33 0 0.66 0 1 0 C1 2.31 1 4.62 1 7 C0.34 7 -0.32 7 -1 7 C-1.33 9.97 -1.66 12.94 -2 16 C-2.99747768 12.01008929 -2.89032392 10.23871653 -2.125 6.3125 C-1.85042969 4.85263672 -1.85042969 4.85263672 -1.5703125 3.36328125 C-1 1 -1 1 0 0 Z " fill="#39A66F" transform="translate(167,483)"/>
<path d="M0 0 C0.33 0 0.66 0 1 0 C1.33 1.65 1.66 3.3 2 5 C2.99 4.67 3.98 4.34 5 4 C4.49396008 6.16874252 4.00016187 7.99967627 3 10 C2.01 10 1.02 10 0 10 C0 6.7 0 3.4 0 0 Z " fill="#3CAA71" transform="translate(109,677)"/>
<path d="M0 0 C0 2.97 0 5.94 0 9 C-0.33 7.68 -0.66 6.36 -1 5 C-2.32 4.67 -3.64 4.34 -5 4 C-5 3.01 -5 2.02 -5 1 C-1.125 0 -1.125 0 0 0 Z " fill="#446953" transform="translate(25,122)"/>
<path d="M0 0 C0 2.64 0 5.28 0 8 C-0.33 7.01 -0.66 6.02 -1 5 C-3.01508358 4.26676204 -3.01508358 4.26676204 -5 4 C-5 3.01 -5 2.02 -5 1 C-1.125 0 -1.125 0 0 0 Z " fill="#426752" transform="translate(25,472)"/>
<path d="M0 0 C-8.261959 3.62870159 -8.261959 3.62870159 -13 2 C-8.4983139 -0.50093672 -4.98364524 -1.40428987 0 0 Z " fill="#3DAD73" transform="translate(234,602)"/>
<path d="M0 0 C1.32 0.33 2.64 0.66 4 1 C4 2.32 4 3.64 4 5 C2.68 5.33 1.36 5.66 0 6 C0 4.02 0 2.04 0 0 Z " fill="#50966B" transform="translate(20,284)"/>
<path d="M0 0 C1.485 0.99 1.485 0.99 3 2 C2.34 3.65 1.68 5.3 1 7 C1.66 7 2.32 7 3 7 C2.34 8.32 1.68 9.64 1 11 C0.67 11 0.34 11 0 11 C0 7.37 0 3.74 0 0 Z " fill="#698A77" transform="translate(19,572)"/>
<path d="M0 0 C1.32 0.33 2.64 0.66 4 1 C4 2.98 4 4.96 4 7 C3.67 6.34 3.34 5.68 3 5 C2.01 5 1.02 5 0 5 C0 3.35 0 1.7 0 0 Z " fill="#5EC284" transform="translate(20,565)"/>
<path d="M0 0 C1.32 0.33 2.64 0.66 4 1 C4 2.98 4 4.96 4 7 C3.67 6.34 3.34 5.68 3 5 C2.01 5 1.02 5 0 5 C0 3.35 0 1.7 0 0 Z " fill="#5EC284" transform="translate(20,270)"/>
<path d="M0 0 C0.33 0.66 0.66 1.32 1 2 C-1.31 4.64 -3.62 7.28 -6 10 C-6 6.41087588 -5.33563446 5.89142971 -3 3.3125 C-2.443125 2.68988281 -1.88625 2.06726563 -1.3125 1.42578125 C-0.879375 0.95527344 -0.44625 0.48476563 0 0 Z " fill="#35B371" transform="translate(487,488)"/>
<path d="M0 0 C0 0.66 0 1.32 0 2 C1.98 2 3.96 2 6 2 C6 2.33 6 2.66 6 3 C1.48382401 3.07654536 -2.59085217 3.10228696 -7 2 C-4.35261084 0.5393715 -3.10551666 0 0 0 Z " fill="#3BA66F" transform="translate(631,559)"/>
<path d="M0 0 C0.66 0 1.32 0 2 0 C2 1.98 2 3.96 2 6 C0.68 5.67 -0.64 5.34 -2 5 C-1.125 1.125 -1.125 1.125 0 0 Z " fill="#5FC185" transform="translate(22,279)"/>
<path d="M0 0 C2.64 0.33 5.28 0.66 8 1 C8 1.66 8 2.32 8 3 C5.36 2.67 2.72 2.34 0 2 C0 1.34 0 0.68 0 0 Z " fill="#175A42" transform="translate(753,598)"/>
<path d="M0 0 C0.99 0 1.98 0 3 0 C3.33 1.32 3.66 2.64 4 4 C3.34 4 2.68 4 2 4 C1.67 4.66 1.34 5.32 1 6 C0 5 0 5 -0.0625 2.4375 C-0.041875 1.633125 -0.02125 0.82875 0 0 Z " fill="#4F986B" transform="translate(20,275)"/>
<path d="M0 0 C1.3921875 0.0928125 1.3921875 0.0928125 2.8125 0.1875 C2.8125 0.8475 2.8125 1.5075 2.8125 2.1875 C-1.6425 2.6825 -1.6425 2.6825 -6.1875 3.1875 C-3.1875 0.1875 -3.1875 0.1875 0 0 Z " fill="#175B42" transform="translate(442.1875,210.8125)"/>
</svg>
